<svg width="70" height="70" viewBox="0 0 70 70" fill="none" xmlns="http://www.w3.org/2000/svg">
<rect width="70" height="70" rx="10" fill="#FDE8E8"/>
<path d="M21.0124 51.3503L21.0124 51.3503C21.6815 51.171 22.1115 50.5069 21.9815 49.8205C21.8297 49.0183 21.7504 48.1904 21.7504 47.3433C21.7504 42.8533 23.983 38.8856 27.4003 36.4893L27.5139 36.4097L27.5064 36.2712L27.3749 33.8299L27.3671 33.6859L27.2385 33.6205L24.7885 32.3748L24.6546 32.3067L24.5317 32.393C19.8269 35.693 16.75 41.1586 16.75 47.3433C16.75 48.5719 16.8712 49.7721 17.103 50.9329L17.3481 50.884L17.103 50.9329C17.254 51.6895 18.0176 52.1525 18.7579 51.9542L18.6932 51.7127L18.7579 51.9542L21.0124 51.3503Z" fill="#ECBFBF" stroke="#EA3232" stroke-width="0.5"/>
<path d="M48.2497 47.3433V47.3435C48.2502 48.1746 48.1728 49.0039 48.0186 49.8206C47.8888 50.507 48.3186 51.1711 48.9877 51.3504L51.2415 51.9542C51.9818 52.1525 52.7455 51.6895 52.8965 50.9329C53.1282 49.7721 53.2494 48.5719 53.2494 47.3434C53.2494 41.1595 50.1733 35.6932 45.4685 32.393L45.3455 32.3067L45.2116 32.3748L42.7612 33.6205L42.6326 33.6859L42.6249 33.8299L42.4936 36.2712L42.4862 36.4097L42.5997 36.4893C46.0164 38.8856 48.2497 42.8539 48.2497 47.3433Z" fill="#BEE7CF" stroke="#14B8A6" stroke-width="0.5"/>
<path d="M45.5315 32.7417L45.6747 32.5371L45.4703 32.3936C42.5068 30.3144 38.896 29.0938 35.0011 29.0938C31.1068 29.0938 27.496 30.3145 24.5326 32.3936L24.3281 32.5371L24.4714 32.7417L27.0529 36.4286L27.1965 36.6337L27.4013 36.4899C29.5525 34.9799 32.1726 34.0942 35.0011 34.0942C37.8295 34.0942 40.4503 34.9799 42.6015 36.4899L42.8063 36.6337L42.9499 36.4286L45.5315 32.7417Z" fill="#FFE6B0" stroke="#FFC344" stroke-width="0.5"/>
<path d="M37.1526 44.2378L37.813 46.2189H32.1879L32.8483 44.2378C33.156 43.3146 33.3129 42.3477 33.3129 41.3746V34.4063C33.3129 33.4743 34.0684 32.7188 35.0004 32.7188C35.9324 32.7188 36.6879 33.4743 36.6879 34.4063V41.3746C36.6879 42.3477 36.8448 43.3145 37.1526 44.2378Z" fill="#7E81B1"/>
<path d="M35.0006 27.0001C37.4859 27.0001 39.5006 24.9854 39.5006 22.5001C39.5006 20.0147 37.4859 18 35.0006 18C32.5152 18 30.5005 20.0147 30.5005 22.5001C30.5005 24.9854 32.5152 27.0001 35.0006 27.0001Z" fill="#FFC344"/>
<path d="M21.5001 30.3751C23.9854 30.3751 26.0001 28.3604 26.0001 25.8751C26.0001 23.3897 23.9854 21.375 21.5001 21.375C19.0147 21.375 17 23.3897 17 25.8751C17 28.3604 19.0147 30.3751 21.5001 30.3751Z" fill="#E53950"/>
<path d="M48.499 30.3751C50.9843 30.3751 52.999 28.3604 52.999 25.8751C52.999 23.3897 50.9843 21.375 48.499 21.375C46.0137 21.375 43.9989 23.3897 43.9989 25.8751C43.9989 28.3604 46.0137 30.3751 48.499 30.3751Z" fill="#14B8A6"/>
<path d="M34.9997 50.7189C36.8637 50.7189 38.3747 49.2078 38.3747 47.3438C38.3747 45.4798 36.8637 43.9688 34.9997 43.9688C33.1357 43.9688 31.6246 45.4798 31.6246 47.3438C31.6246 49.2078 33.1357 50.7189 34.9997 50.7189Z" fill="#7E81B1"/>
<path d="M35.0001 48.4688C35.6215 48.4688 36.1252 47.9651 36.1252 47.3438C36.1252 46.7224 35.6215 46.2188 35.0001 46.2188C34.3788 46.2188 33.8751 46.7224 33.8751 47.3438C33.8751 47.9651 34.3788 48.4688 35.0001 48.4688Z" fill="white"/>
<path d="M33.8729 21.9173C33.8016 21.9173 33.7309 21.9033 33.665 21.876C33.5991 21.8487 33.5392 21.8087 33.4888 21.7582C33.4383 21.7078 33.3983 21.6479 33.371 21.582C33.3437 21.5161 33.3297 21.4454 33.3297 21.3741V20.5511C33.3297 20.4797 33.3437 20.4091 33.371 20.3432C33.3983 20.2773 33.4384 20.2174 33.4888 20.1669C33.5392 20.1165 33.5991 20.0765 33.665 20.0492C33.731 20.0219 33.8016 20.0078 33.8729 20.0078C33.9443 20.0078 34.0149 20.0219 34.0808 20.0492C34.1467 20.0765 34.2066 20.1165 34.2571 20.1669C34.3075 20.2174 34.3475 20.2773 34.3748 20.3432C34.4021 20.4091 34.4162 20.4797 34.4162 20.5511V21.3741C34.4162 21.4454 34.4021 21.5161 34.3748 21.582C34.3475 21.6479 34.3075 21.7078 34.2571 21.7582C34.2066 21.8087 34.1467 21.8487 34.0808 21.876C34.0149 21.9033 33.9443 21.9173 33.8729 21.9173ZM36.6663 21.3741V20.5511C36.6663 20.407 36.609 20.2688 36.5072 20.1669C36.4053 20.065 36.2671 20.0078 36.123 20.0078C35.979 20.0078 35.8408 20.065 35.7389 20.1669C35.637 20.2688 35.5798 20.407 35.5798 20.5511V21.3741C35.5798 21.5182 35.637 21.6563 35.7389 21.7582C35.8408 21.8601 35.979 21.9173 36.123 21.9173C36.2671 21.9173 36.4053 21.8601 36.5072 21.7582C36.609 21.6563 36.6663 21.5182 36.6663 21.3741ZM37.4893 23.6241C37.4893 23.48 37.4321 23.3419 37.3302 23.24C37.2283 23.1381 37.0901 23.0809 36.9461 23.0809H33.05C32.9059 23.0809 32.7677 23.1381 32.6659 23.24C32.564 23.3419 32.5067 23.48 32.5067 23.6241C32.5067 23.7682 32.564 23.9064 32.6659 24.0082C32.7677 24.1101 32.9059 24.1674 33.05 24.1674H36.9461C37.0901 24.1674 37.2283 24.1101 37.3302 24.0082C37.4321 23.9064 37.4893 23.7682 37.4893 23.6241ZM20.916 24.3069V23.9261C20.916 23.782 20.8588 23.6439 20.7569 23.542C20.6551 23.4401 20.5169 23.3829 20.3728 23.3829C20.2287 23.3829 20.0905 23.4401 19.9887 23.542C19.8868 23.6439 19.8296 23.782 19.8296 23.9261V24.3069C19.8296 24.4509 19.8868 24.5891 19.9887 24.691C20.0905 24.7929 20.2287 24.8501 20.3728 24.8501C20.5169 24.8501 20.6551 24.7929 20.7569 24.691C20.8588 24.5891 20.916 24.4509 20.916 24.3069ZM23.1661 24.3069V23.9261C23.1661 23.782 23.1088 23.6439 23.007 23.542C22.9051 23.4401 22.7669 23.3829 22.6228 23.3829C22.4788 23.3829 22.3406 23.4401 22.2387 23.542C22.1368 23.6439 22.0796 23.782 22.0796 23.9261V24.3069C22.0796 24.4509 22.1368 24.5891 22.2387 24.691C22.3406 24.7929 22.4788 24.8501 22.6228 24.8501C22.7669 24.8501 22.9051 24.7929 23.007 24.691C23.1088 24.5891 23.1661 24.4509 23.1661 24.3069ZM24.005 27.1035C24.0625 26.9714 24.0652 26.8219 24.0125 26.6878C23.9598 26.5537 23.856 26.446 23.7239 26.3884C22.3091 25.7721 20.6864 25.7721 19.2716 26.3884C19.1414 26.4472 19.0396 26.5549 18.9882 26.6882C18.9368 26.8215 18.9399 26.9696 18.997 27.1006C19.054 27.2316 19.1604 27.3348 19.293 27.388C19.4256 27.4411 19.5738 27.4399 19.7055 27.3845C20.8445 26.8883 22.151 26.8883 23.29 27.3845C23.3554 27.413 23.4257 27.4284 23.4971 27.4297C23.5684 27.431 23.6393 27.4182 23.7057 27.3921C23.7721 27.366 23.8327 27.3271 23.884 27.2776C23.9354 27.2281 23.9765 27.1689 24.005 27.1035ZM50.1665 25.0427V23.9261C50.1665 23.782 50.1093 23.6439 50.0074 23.542C49.9055 23.4401 49.7673 23.3829 49.6232 23.3829C49.4792 23.3829 49.341 23.4401 49.2391 23.542C49.1372 23.6439 49.08 23.782 49.08 23.9261V25.0427C49.08 25.1868 49.1372 25.3249 49.2391 25.4268C49.341 25.5287 49.4792 25.5859 49.6232 25.5859C49.7673 25.5859 49.9055 25.5287 50.0074 25.4268C50.1093 25.3249 50.1665 25.1868 50.1665 25.0427ZM47.9165 25.0427V23.9267C47.9165 23.7826 47.8592 23.6444 47.7573 23.5425C47.6555 23.4407 47.5173 23.3834 47.3732 23.3834C47.2291 23.3834 47.091 23.4407 46.9891 23.5425C46.8872 23.6444 46.83 23.7826 46.83 23.9267V25.0427C46.83 25.1868 46.8872 25.3249 46.9891 25.4268C47.091 25.5287 47.2291 25.5859 47.3732 25.5859C47.5173 25.5859 47.6555 25.5287 47.7573 25.4268C47.8592 25.3249 47.9165 25.1868 47.9165 25.0427ZM50.5216 27.6934C50.588 27.6675 50.6488 27.6288 50.7003 27.5794C50.7518 27.5301 50.7931 27.471 50.8218 27.4057C50.8505 27.3404 50.866 27.2701 50.8675 27.1987C50.869 27.1274 50.8564 27.0565 50.8305 26.99C50.8046 26.9235 50.7659 26.8628 50.7165 26.8113C50.6672 26.7598 50.6082 26.7185 50.5428 26.6898C50.4775 26.6611 50.4072 26.6456 50.3358 26.6441C50.2645 26.6426 50.1936 26.6551 50.1271 26.6811C49.0797 27.0904 47.9166 27.0904 46.8692 26.6811C46.7355 26.6312 46.5875 26.636 46.4573 26.6943C46.327 26.7527 46.225 26.8599 46.1732 26.9929C46.1214 27.1259 46.1239 27.2739 46.1804 27.405C46.2368 27.5361 46.3425 27.6397 46.4747 27.6934C47.1272 27.9476 47.8126 28.0747 48.4982 28.0747C49.1837 28.0747 49.8691 27.9476 50.5216 27.6934Z" fill="white"/>
</svg>
