<svg width="70" height="70" viewBox="0 0 70 70" fill="none" xmlns="http://www.w3.org/2000/svg">
<rect width="70" height="70" rx="10" fill="#0095FF" fill-opacity="0.11"/>
<path d="M24.3079 39.8838L23.7887 40.4031V51.3069L25.8656 52.3453L27.9425 51.3069L32.0964 52.3453L40.404 51.8261L43.5194 47.6723L42.4809 39.8838L35.731 39.3646L36.2502 38.3261L36.7694 36.2492V32.6146L34.1733 31.5762L33.1348 33.6531L30.0194 38.8454L27.9425 40.4031L27.4233 39.8838H24.3079Z" fill="#CFEBFF"/>
<path d="M21.7118 22.2305L23.4575 25.5392L27.1437 26.177L24.5364 28.8598L25.0689 32.5627L21.7118 30.912L18.3546 32.5627L18.8871 28.8598L16.2798 26.177L19.966 25.5392L21.7118 22.2305Z" fill="#0095FF" fill-opacity="0.09"/>
<path d="M47.6732 22.2305L49.4189 25.5392L53.1052 26.177L50.4978 28.8598L51.0303 32.5627L47.6732 30.912L44.316 32.5627L44.8486 28.8598L42.2412 26.177L45.9275 25.5392L47.6732 22.2305Z" fill="#0095FF" fill-opacity="0.09"/>
<path d="M34.4328 16L36.5753 20.0607L41.0993 20.8435L37.8994 24.136L38.5529 28.6805L34.4328 26.6546L30.3127 28.6805L30.9662 24.136L27.7663 20.8435L32.2903 20.0607L34.4328 16Z" fill="#0095FF" fill-opacity="0.09"/>
<path d="M41.2739 38.8487H36.6555L37.6177 35.6513C37.912 34.6953 37.8195 33.662 37.36 32.7734C36.9005 31.8849 36.1107 31.2121 35.1605 30.8997C34.8876 30.8097 34.599 30.7771 34.3129 30.8039C34.0268 30.8306 33.7493 30.9161 33.4978 31.0551C33.2463 31.194 33.0261 31.3834 32.8512 31.6114C32.6763 31.8394 32.5503 32.101 32.4812 32.38L32.3332 33.0017C31.7749 35.2419 30.6186 37.2885 28.9878 38.9227L28.1441 39.7516C27.9297 39.4816 27.6575 39.263 27.3476 39.1118C27.0376 38.9607 26.6978 38.8809 26.3529 38.8783H25.2724C24.665 38.8782 24.0821 39.1175 23.6499 39.5441C23.2177 39.9708 22.9709 40.5506 22.9632 41.1579V50.6907C22.9632 51.3032 23.2064 51.8905 23.6395 52.3236C24.0726 52.7566 24.6599 52.9999 25.2724 52.9999H26.3529C26.7504 52.999 27.1409 52.8949 27.486 52.6976C27.8311 52.5004 28.1191 52.2169 28.3217 51.8749L28.5289 51.9786C29.8668 52.6467 31.3411 52.9962 32.8365 52.9999H38.1506C39.0291 53.0042 39.8949 52.79 40.6701 52.3766C41.4453 51.9631 42.1055 51.3635 42.5914 50.6315C43.6255 49.0852 44.1768 47.2665 44.1752 45.4062V41.7204C44.1753 41.3408 44.1 40.9649 43.9538 40.6145C43.8077 40.2642 43.5935 39.9463 43.3237 39.6792C43.0539 39.4122 42.7338 39.2013 42.382 39.0587C42.0301 38.9162 41.6535 38.8448 41.2739 38.8487ZM27.1227 50.6907C27.1227 50.9106 27.0353 51.1214 26.8799 51.2769C26.7244 51.4323 26.5136 51.5197 26.2937 51.5197H25.2724C25.0525 51.5197 24.8417 51.4323 24.6862 51.2769C24.5307 51.1214 24.4434 50.9106 24.4434 50.6907V41.1579C24.4434 40.938 24.5307 40.7272 24.6862 40.5717C24.8417 40.4163 25.0525 40.3289 25.2724 40.3289H26.3529C26.5624 40.3439 26.7583 40.4378 26.9012 40.5917C27.0441 40.7456 27.1232 40.9479 27.1227 41.1579V50.6907ZM42.6654 45.4062C42.6716 46.9858 42.2078 48.5316 41.3331 49.847C40.9832 50.3702 40.5098 50.7992 39.9547 51.0961C39.3997 51.393 38.7801 51.5486 38.1506 51.5493H32.8365C31.5727 51.548 30.3263 51.2542 29.195 50.6907L28.6029 50.3947V41.3059L29.9648 39.9441C31.7868 38.1223 33.0811 35.8408 33.7098 33.3421L33.8578 32.7352C33.9018 32.5729 34.0082 32.4345 34.1539 32.3504C34.2286 32.3178 34.3092 32.3009 34.3907 32.3009C34.4722 32.3009 34.5529 32.3178 34.6276 32.3504C34.9193 32.4474 35.189 32.6009 35.4213 32.8023C35.6537 33.0036 35.844 33.2488 35.9815 33.5237C36.119 33.7987 36.2009 34.0981 36.2226 34.4047C36.2443 34.7114 36.2053 35.0193 36.1078 35.3109L34.8644 39.4704C34.8323 39.5807 34.8262 39.697 34.8468 39.81C34.8673 39.9231 34.9139 40.0298 34.9828 40.1217C35.0501 40.2154 35.1392 40.2913 35.2423 40.3429C35.3455 40.3945 35.4596 40.4202 35.5749 40.4178H41.1851C41.3678 40.4178 41.5488 40.4537 41.7176 40.5237C41.8864 40.5936 42.0398 40.6961 42.169 40.8253C42.2982 40.9545 42.4007 41.1079 42.4706 41.2767C42.5406 41.4455 42.5766 41.6265 42.5766 41.8092L42.6654 45.4062ZM30.0832 24.579L29.6095 27.3175C29.5525 27.6205 29.5836 27.9336 29.699 28.2195C29.8145 28.5055 30.0094 28.7524 30.2608 28.931C30.5391 29.1384 30.8759 29.2524 31.223 29.2566C31.4909 29.2524 31.7543 29.1865 31.9927 29.0642L34.524 27.7616L36.996 29.0642C37.2678 29.2077 37.5747 29.2714 37.8812 29.2478C38.1877 29.2242 38.4812 29.1144 38.7279 28.931C38.9767 28.7535 39.17 28.5091 39.2853 28.2261C39.4006 27.943 39.4332 27.6331 39.3792 27.3323L38.9647 24.579L40.9039 22.6547C41.1278 22.4429 41.287 22.1718 41.363 21.8731C41.439 21.5744 41.4287 21.2602 41.3331 20.9672C41.2375 20.6744 41.0622 20.4141 40.8269 20.2154C40.5916 20.0167 40.3056 19.8875 40.0009 19.8422L37.2328 19.4425L36.0042 16.9113C35.866 16.6373 35.6544 16.407 35.3931 16.2461C35.1317 16.0852 34.8309 16 34.524 16C34.2171 16 33.9162 16.0852 33.6548 16.2461C33.3935 16.407 33.1819 16.6373 33.0437 16.9113L31.8151 19.4129L29.047 19.8126C28.7424 19.8578 28.4564 19.9871 28.2211 20.1858C27.9857 20.3845 27.8104 20.6448 27.7148 20.9376C27.6131 21.2347 27.5996 21.5549 27.6757 21.8595C27.7519 22.1642 27.9145 22.4403 28.1441 22.6547L30.0832 24.579ZM29.195 21.278L32.348 20.8192C32.4904 20.8284 32.6324 20.7954 32.7561 20.7243C32.8799 20.6532 32.9799 20.5472 33.0437 20.4195L34.524 17.5626C34.537 17.5342 34.5578 17.5102 34.584 17.4934C34.6103 17.4765 34.6408 17.4676 34.672 17.4676C34.7032 17.4676 34.7337 17.4765 34.7599 17.4934C34.7862 17.5102 34.807 17.5342 34.82 17.5626L36.3003 20.4195C36.3535 20.5276 36.4327 20.6207 36.531 20.6905C36.6292 20.7603 36.7432 20.8045 36.8628 20.8192L40.0157 21.278C40.0464 21.2843 40.0749 21.2985 40.0983 21.3193C40.1217 21.3401 40.1391 21.3667 40.1489 21.3965C40.1632 21.4212 40.1708 21.4493 40.1708 21.4779C40.1708 21.5064 40.1632 21.5345 40.1489 21.5593L37.8693 23.7797C37.7831 23.8658 37.7182 23.9709 37.6796 24.0865C37.6411 24.2021 37.63 24.3251 37.6473 24.4458L38.195 27.5691C38.2051 27.6006 38.2031 27.6347 38.1894 27.6648C38.1757 27.6949 38.1513 27.7188 38.121 27.732C38.0954 27.7512 38.0642 27.7616 38.0322 27.7616C38.0001 27.7616 37.969 27.7512 37.9434 27.732L35.1309 26.2517C35.0269 26.1933 34.9096 26.1627 34.7904 26.1627C34.6712 26.1627 34.5539 26.1933 34.45 26.2517L31.6227 27.732C31.5993 27.75 31.5707 27.7597 31.5412 27.7597C31.5118 27.7597 31.4832 27.75 31.4598 27.732C31.4295 27.7188 31.4051 27.6949 31.3914 27.6648C31.3778 27.6347 31.3758 27.6006 31.3858 27.5691L31.9335 24.4458C31.9508 24.3251 31.9397 24.2021 31.9012 24.0865C31.8626 23.9709 31.7977 23.8658 31.7115 23.7797L29.4319 21.5593C29.4176 21.5345 29.4101 21.5064 29.4101 21.4779C29.4101 21.4493 29.4176 21.4212 29.4319 21.3965C29.3934 21.3986 29.3553 21.3883 29.3233 21.3669C29.2913 21.3455 29.267 21.3144 29.2542 21.278H29.195ZM24.6655 33.3865C24.8859 33.3906 25.1046 33.3453 25.3053 33.254C25.506 33.1627 25.6838 33.0277 25.8257 32.8588C25.9676 32.69 26.07 32.4916 26.1253 32.2781C26.1807 32.0647 26.1876 31.8415 26.1457 31.625L25.746 29.375L27.4039 27.7616C27.6128 27.5699 27.7622 27.3222 27.8345 27.0481C27.9067 26.7739 27.8987 26.4848 27.8114 26.2151C27.7241 25.9454 27.5611 25.7064 27.342 25.5266C27.1228 25.3467 26.8566 25.2336 26.575 25.2007L24.3102 24.8751L23.2888 22.8175C23.1525 22.5808 22.9563 22.3841 22.7198 22.2474C22.4833 22.1106 22.2149 22.0386 21.9418 22.0386C21.6686 22.0386 21.4003 22.1106 21.1638 22.2474C20.9273 22.3841 20.731 22.5808 20.5947 22.8175L19.5734 24.8751L17.3086 25.2007C17.027 25.2336 16.7608 25.3467 16.5416 25.5266C16.3224 25.7064 16.1595 25.9454 16.0722 26.2151C15.9849 26.4848 15.9769 26.7739 16.0491 27.0481C16.1213 27.3222 16.2708 27.5699 16.4796 27.7616L18.1227 29.375L17.723 31.625C17.6718 31.904 17.7017 32.1918 17.8093 32.4542C17.9169 32.7166 18.0976 32.9426 18.33 33.1053C18.5569 33.2712 18.8263 33.369 19.1068 33.3873C19.3873 33.4057 19.6672 33.3438 19.9138 33.2089L21.9418 32.1431L23.9697 33.2089C24.1835 33.3243 24.4225 33.3853 24.6655 33.3865ZM21.9418 30.574C21.8225 30.5733 21.7051 30.6039 21.6013 30.6629L19.1885 31.8767L19.7214 29.2418C19.7296 29.1151 19.707 28.9883 19.6554 28.8723C19.6039 28.7563 19.5249 28.6545 19.4253 28.5757L17.5158 26.6662L20.1803 26.2813C20.2981 26.2669 20.4102 26.2227 20.5061 26.1527C20.602 26.0827 20.6783 25.9894 20.728 25.8816L21.9566 23.4688L23.1556 25.8816C23.2052 25.9894 23.2816 26.0827 23.3775 26.1527C23.4733 26.2227 23.5855 26.2669 23.7033 26.2813L26.3677 26.7106L24.4582 28.5757C24.372 28.6619 24.3071 28.7669 24.2685 28.8825C24.23 28.9982 24.2189 29.1212 24.2362 29.2418L24.6655 31.9063L22.2822 30.6629C22.1785 30.6039 22.0611 30.5733 21.9418 30.574ZM52.9532 26.2221C52.8686 25.9542 52.7096 25.7159 52.4946 25.5351C52.2797 25.3542 52.0177 25.2382 51.7394 25.2007L49.4746 24.8751L48.4532 22.8175C48.3169 22.5808 48.1206 22.3841 47.8841 22.2474C47.6477 22.1106 47.3793 22.0386 47.1062 22.0386C46.833 22.0386 46.5646 22.1106 46.3282 22.2474C46.0917 22.3841 45.8954 22.5808 45.7591 22.8175L44.7377 24.8751L42.4729 25.2007C42.1914 25.2336 41.9252 25.3467 41.706 25.5266C41.4868 25.7064 41.3239 25.9454 41.2366 26.2151C41.1492 26.4848 41.1412 26.7739 41.2135 27.0481C41.2857 27.3222 41.4351 27.5699 41.644 27.7616L43.2871 29.375L42.8874 31.625C42.8361 31.904 42.8661 32.1918 42.9737 32.4542C43.0813 32.7166 43.262 32.9426 43.4943 33.1053C43.7213 33.2712 43.9907 33.369 44.2712 33.3873C44.5517 33.4057 44.8316 33.3438 45.0782 33.2089L47.1062 32.1431L49.1341 33.2089C49.3479 33.3243 49.5869 33.3853 49.8298 33.3865C50.0503 33.3906 50.2689 33.3453 50.4697 33.254C50.6704 33.1627 50.8482 33.0277 50.9901 32.8588C51.132 32.69 51.2343 32.4916 51.2897 32.2781C51.3451 32.0647 51.352 31.8415 51.3101 31.625L50.9104 29.375L52.5535 27.7616C52.7597 27.5696 52.9069 27.3228 52.9777 27.0501C53.0485 26.7774 53.04 26.4901 52.9532 26.2221ZM49.6226 28.5757C49.5364 28.6619 49.4714 28.7669 49.4329 28.8825C49.3943 28.9982 49.3833 29.1212 49.4005 29.2418L49.8298 31.9063L47.4466 30.6629C47.3426 30.6045 47.2254 30.5739 47.1062 30.5739C46.9869 30.5739 46.8697 30.6045 46.7657 30.6629L44.3529 31.8767L44.8858 29.2418C44.894 29.1151 44.8714 28.9883 44.8198 28.8723C44.7682 28.7563 44.6893 28.6545 44.5897 28.5757L42.6802 26.6662L45.3446 26.2813C45.4624 26.2669 45.5746 26.2227 45.6705 26.1527C45.7663 26.0827 45.8427 25.9894 45.8923 25.8816L47.121 23.4688L48.32 25.8816C48.3696 25.9894 48.446 26.0827 48.5418 26.1527C48.6377 26.2227 48.7499 26.2669 48.8677 26.2813L51.5321 26.7106L49.6226 28.5757Z" fill="#0095FF"/>
</svg>
