<svg width="88" height="90" viewBox="0 0 88 90" fill="none" xmlns="http://www.w3.org/2000/svg">
<path d="M44 87.9999C67.7482 87.9999 87 68.7482 87 44.9999C87 21.2517 67.7482 1.99994 44 1.99994C20.2518 1.99994 1 21.2517 1 44.9999C1 68.7482 20.2518 87.9999 44 87.9999Z" fill="url(#paint0_linear_2600_2187)"/>
<path d="M70.3819 69.9958C85.2662 55.1115 85.2662 30.9792 70.3819 16.0949C55.4976 1.21063 31.3654 1.21063 16.4811 16.0949C1.5968 30.9792 1.5968 55.1114 16.4811 69.9958C31.3654 84.88 55.4976 84.8801 70.3819 69.9958Z" fill="url(#paint1_linear_2600_2187)"/>
<g filter="url(#filter0_f_2600_2187)">
<path d="M43.9968 83.9353C65.1351 83.9353 82.271 66.5033 82.271 44.9999C82.271 23.4964 65.1351 6.06439 43.9968 6.06439C22.8586 6.06439 5.72266 23.4964 5.72266 44.9999C5.72266 66.5033 22.8586 83.9353 43.9968 83.9353Z" fill="url(#paint2_linear_2600_2187)"/>
</g>
<path d="M58.008 41.514C55.5071 41.514 53.4338 39.3274 53.0209 36.4576C52.9716 36.7974 52.9424 37.1444 52.9424 37.5007C52.9424 40.8692 55.2112 43.6002 58.008 43.6002C60.8047 43.6002 63.0736 40.8692 63.0736 37.5007C63.0736 37.1444 63.0425 36.7974 62.995 36.4576C62.584 39.3292 60.5106 41.514 58.008 41.514Z" fill="#FFDF9D"/>
<path d="M58.008 31.4012C60.5088 31.4012 62.5822 33.5878 62.995 36.4576C63.0443 36.1178 63.0736 35.7708 63.0736 35.4145C63.0736 32.046 60.8047 29.315 58.008 29.315C55.2112 29.315 52.9424 32.046 52.9424 35.4145C52.9424 35.7708 52.9734 36.1178 53.0209 36.4576C53.432 33.586 55.5053 31.4012 58.008 31.4012Z" fill="#F4A800"/>
<path d="M58.0108 42.5886C60.759 42.5886 62.9868 39.8577 62.9868 36.4891C62.9868 33.1204 60.759 30.3895 58.0108 30.3895C55.2625 30.3895 53.0347 33.1204 53.0347 36.4891C53.0347 39.8577 55.2625 42.5886 58.0108 42.5886Z" fill="#9B5D07"/>
<path d="M58.0128 32.1009C60.5228 32.1009 62.5925 34.3825 62.9341 37.3437C62.967 37.0624 62.9889 36.7792 62.9889 36.4869C62.9889 33.1184 60.7621 30.3874 58.0147 30.3874C55.2672 30.3874 53.0386 33.1184 53.0386 36.4869C53.0386 36.7792 53.0605 37.0624 53.0934 37.3437C53.4332 34.3807 55.5047 32.1009 58.0147 32.1009H58.0128Z" fill="#9B5D07"/>
<path d="M29.9875 41.5142C27.4866 41.5142 25.4133 39.3275 25.0004 36.4577C24.9511 36.7975 24.9219 37.1446 24.9219 37.5008C24.9219 40.8693 27.1907 43.6003 29.9875 43.6003C32.7842 43.6003 35.0531 40.8693 35.0531 37.5008C35.0531 37.1446 35.022 36.7975 34.9745 36.4577C34.5635 39.3294 32.4901 41.5142 29.9875 41.5142Z" fill="#FFDF9D"/>
<path d="M29.9875 31.4012C32.4883 31.4012 34.5617 33.5878 34.9745 36.4576C35.0238 36.1178 35.0531 35.7708 35.0531 35.4145C35.0531 32.046 32.7842 29.315 29.9875 29.315C27.1907 29.315 24.9219 32.046 24.9219 35.4145C24.9219 35.7708 24.9529 36.1178 25.0004 36.4576C25.4114 33.586 27.4848 31.4012 29.9875 31.4012Z" fill="#F4A800"/>
<path d="M29.985 42.5886C32.7322 42.5886 34.9593 39.8577 34.9593 36.4891C34.9593 33.1204 32.7322 30.3895 29.985 30.3895C27.2378 30.3895 25.0107 33.1204 25.0107 36.4891C25.0107 39.8577 27.2378 42.5886 29.985 42.5886Z" fill="#9B5D07"/>
<path d="M29.9871 32.1011C32.497 32.1011 34.5668 34.3827 34.9084 37.3439C34.9412 37.0625 34.9632 36.7794 34.9632 36.4871C34.9632 33.1186 32.7363 30.3876 29.9889 30.3876C27.2415 30.3876 25.0146 33.1186 25.0146 36.4871C25.0146 36.7794 25.0366 37.0625 25.0695 37.3439C25.4092 34.3809 27.4808 32.1011 29.9907 32.1011H29.9871Z" fill="#9B5D07"/>
<path d="M43.9824 52.2321C46.6805 52.2321 49.2562 52.7619 51.6146 53.7228C54.5831 54.9339 57.1825 56.8995 59.2614 59.3382C60.5474 60.8453 62.5751 63.284 64.4695 65.8287C64.8257 66.3073 65.5765 65.909 65.3774 65.3464C62.0654 55.9952 53.7354 49.3605 43.9824 49.3605C34.2293 49.3605 25.9815 55.9295 22.6368 65.2057C22.3627 65.9675 23.4131 66.4827 23.8497 65.8013C25.0079 63.9964 26.1368 62.3651 27.0411 61.0974C30.8279 55.787 36.8453 52.4258 43.3649 52.2413C43.5695 52.2358 43.776 52.2321 43.9824 52.2321Z" fill="#F4A800"/>
<path d="M65.3776 66.3638C62.0657 57.0126 53.7357 50.3779 43.9826 50.3779C34.2296 50.3779 25.9818 56.9469 22.637 66.2232C22.4068 66.8607 23.1065 67.3229 23.596 67.0562C23.3312 66.9228 23.154 66.6287 23.2837 66.2816C26.528 57.599 34.5712 51.452 43.9826 51.452C53.3941 51.452 61.5195 57.6611 64.7309 66.415C64.8131 66.6397 64.7273 66.8369 64.5738 66.9539C64.952 67.2534 65.5584 66.879 65.3776 66.3656V66.3638Z" fill="#9B5D07"/>
<path d="M64.4694 66.8462C62.575 64.3015 60.5473 61.8628 59.2613 60.3557C57.1806 57.917 54.5811 55.9514 51.6145 54.7403C49.2561 53.7794 46.6804 53.2496 43.9823 53.2496C43.7759 53.2496 43.5695 53.2533 43.3649 53.2588C36.8452 53.4433 30.8278 56.8063 27.041 62.1149C26.1367 63.3826 25.0096 65.0139 23.8496 66.8188C23.7784 66.9284 23.6907 67.0051 23.5957 67.0563C23.8715 67.1969 24.2424 67.164 24.4598 66.8389C25.5832 65.1509 26.6774 63.6238 27.5543 62.4364C31.2261 57.4658 37.0607 54.3201 43.3831 54.1466C43.5822 54.1411 43.7814 54.1393 43.9823 54.1393C46.6 54.1393 49.0972 54.6343 51.3843 55.5349C54.2614 56.6675 56.7824 58.5089 58.8009 60.7905C60.0468 62.2007 62.0142 64.4842 63.8519 66.8663C64.0492 67.122 64.3725 67.1092 64.5753 66.9521C64.5388 66.9229 64.5022 66.89 64.4712 66.8462H64.4694Z" fill="#FFDF9D"/>
<path d="M64.7314 66.4132C61.52 57.6612 53.4421 51.4503 43.9831 51.4503C34.5242 51.4503 26.5267 57.5973 23.2842 66.2799C23.1545 66.6288 23.3317 66.921 23.5966 67.0544C23.6915 67.0033 23.7792 66.9265 23.8505 66.8169C25.0086 65.0139 26.1376 63.3808 27.0418 62.113C30.8287 56.8026 36.846 53.4414 43.3657 53.2569C43.5721 53.2514 43.7767 53.2478 43.9831 53.2478C46.6813 53.2478 49.257 53.7775 51.6153 54.7384C54.5838 55.9496 57.1833 57.9151 59.2621 60.3539C60.5482 61.8609 62.5759 64.2997 64.4702 66.8443C64.5013 66.8863 64.5378 66.921 64.5743 66.9503C64.726 66.8334 64.8136 66.6361 64.7314 66.4114V66.4132Z" fill="#9B5D07"/>
<defs>
<filter id="filter0_f_2600_2187" x="0.645733" y="0.987469" width="86.7022" height="88.0248" filterUnits="userSpaceOnUse" color-interpolation-filters="sRGB">
<feFlood flood-opacity="0" result="BackgroundImageFix"/>
<feBlend mode="normal" in="SourceGraphic" in2="BackgroundImageFix" result="shape"/>
<feGaussianBlur stdDeviation="2.53846" result="effect1_foregroundBlur_2600_2187"/>
</filter>
<linearGradient id="paint0_linear_2600_2187" x1="44" y1="1.99994" x2="44" y2="87.9999" gradientUnits="userSpaceOnUse">
<stop stop-color="#FFA63F"/>
<stop offset="1" stop-color="#CE720F"/>
</linearGradient>
<linearGradient id="paint1_linear_2600_2187" x1="43.4316" y1="4.50592" x2="43.4316" y2="80.9386" gradientUnits="userSpaceOnUse">
<stop offset="0.0336682" stop-color="#FFDD71"/>
<stop offset="1" stop-color="#D67A15"/>
</linearGradient>
<linearGradient id="paint2_linear_2600_2187" x1="43.9968" y1="6.06439" x2="43.9968" y2="83.9353" gradientUnits="userSpaceOnUse">
<stop stop-color="#FFFFF7"/>
<stop offset="0.454537" stop-color="#FFEF89"/>
<stop offset="0.902947" stop-color="#E58F26"/>
</linearGradient>
</defs>
</svg>
