<svg width="152" height="114" viewBox="0 0 152 114" fill="none" xmlns="http://www.w3.org/2000/svg">
<path d="M88.2241 67.3603L88.2218 67.3703C84.5864 83.291 79.0983 94.6894 71.716 102.102C64.3637 109.485 55.0481 113 43.5463 113C30.1454 113 19.6498 106.868 12.4751 97.2298C5.28253 87.5676 1.41797 74.3589 1.41797 60.2788C1.41797 43.0098 5.23618 28.8672 12.7295 18.7219C20.0199 8.85133 30.8599 2.6669 45.3206 1.10433V28.9523C37.4314 30.7231 31.4259 34.6084 27.3659 39.9371C23.1757 45.4368 21.1082 52.4069 21.1082 60.0265C21.1082 66.8745 22.9157 73.0859 26.253 77.6128C29.6063 82.1613 34.4961 84.9867 40.5198 84.9867C46.943 84.9867 52.0929 83.0016 56.2523 78.1767C60.354 73.4187 63.4252 65.9744 65.9576 55.2121C69.4819 40.3601 73.7917 28.4428 80.4821 20.2416C87.118 12.1073 96.1555 7.55752 109.374 7.55752C122.532 7.55752 132.903 13.4463 140.01 22.7694C147.135 32.1152 150.998 44.942 150.998 58.7655L150.998 58.7729C151.122 75.593 146.268 87.8098 138.315 96.1928C130.585 104.34 119.834 108.966 107.599 110.597V83.1014C114.785 82.1148 120.701 79.6229 124.869 75.4223C129.223 71.036 131.56 64.8983 131.56 57C131.56 51.0562 130.14 45.7052 127.09 41.8175C124.013 37.8952 119.36 35.5708 113.157 35.5708C109.962 35.5708 107.117 36.0764 104.563 37.2458C102.005 38.4176 99.793 40.2312 97.8319 42.7691C93.9403 47.8052 91.0021 55.7435 88.2241 67.3603ZM151.998 58.7655C152.247 92.3717 132.84 108.287 107.599 111.606L151.998 58.7655Z" stroke="black" stroke-opacity="0.07" stroke-width="2"/>
</svg>
