<svg width="136" height="32" viewBox="0 0 136 32" fill="none" xmlns="http://www.w3.org/2000/svg">
<path d="M17.8704 8.16976H13.121C12.8393 5.79509 11.5513 4.34614 9.09618 4.34614C7.24475 4.34614 5.83605 5.23161 5.83605 7.1233C5.83605 9.09548 7.08375 10.0614 10.7866 10.9469C15.8982 12.1141 18.1924 14.4888 18.1924 18.2319C18.1924 22.619 14.1675 25.1144 9.61941 25.1144C4.06511 25.0339 0.442735 22.5788 0 17.7087H4.74933C5.27257 20.2846 7.2045 21.5725 9.57917 21.5725C11.7123 21.5725 13.4028 20.4456 13.4028 18.6344C13.4028 16.6622 12.1953 15.5353 8.77419 14.7303C3.98461 13.6033 0.965966 11.9531 0.965966 7.68678C0.965966 3.42043 4.82983 0.884766 9.29743 0.884766C14.8517 0.884766 17.3874 4.02416 17.8704 8.16976Z" fill="black"/>
<path d="M28.9004 21.9357L28.0149 23.8676C26.7672 24.7128 25.2378 25.0348 23.5876 25.0348C20.4884 25.0348 17.832 23.2236 17.832 19.8025C17.832 15.8581 21.2129 13.6444 27.6929 13.6444H28.8199V13.2822C28.8199 12.759 28.8199 12.1955 28.7394 11.5918C28.6187 10.3441 27.8137 9.41834 25.9622 9.41834C24.1108 9.41834 23.1046 10.5051 22.9839 12.437L18.476 12.4772C18.5968 8.45237 21.8569 6.1582 26.1635 6.1582C31.1946 6.1582 33.046 8.33163 33.3277 11.4308C33.4082 12.3162 33.4082 13.2822 33.4082 14.2482V20.044C33.4082 21.3722 33.4887 22.6199 33.7302 24.5921H29.2224L28.9004 21.9357ZM28.8199 17.9913V16.5423C25.117 16.2606 22.6216 17.1058 22.6216 19.4805C22.6216 21.0502 23.7083 21.8149 25.3585 21.8149C27.2502 21.7747 28.8199 20.4465 28.8199 17.9913Z" fill="black"/>
<path d="M40.9322 18.1524C40.9322 18.7562 40.9322 19.2794 40.9725 19.7221C41.0932 21.4528 41.7372 21.8956 44.3534 21.6943V24.713C43.3069 24.874 42.3409 24.9545 41.2945 24.9545C37.8331 24.9545 36.5854 23.8275 36.3842 21.2918C36.3037 20.4869 36.3037 19.7221 36.3037 18.7159V9.86124H33.6875V6.80235H36.3037V2.375H40.9322V6.80235H44.6351V9.86124H40.9322V18.1524Z" fill="black"/>
<path d="M50.0698 2.45516C50.0698 3.94436 49.0233 4.91033 47.4939 4.91033C45.9644 4.91033 44.918 3.94436 44.918 2.45516C44.918 1.00621 45.9644 0 47.4939 0C49.0233 0 50.0698 1.00621 50.0698 2.45516ZM45.1595 24.5919V6.68127H49.788V24.5919H45.1595Z" fill="black"/>
<path d="M70.9564 23.1426V18.4335C73.331 18.1518 74.78 16.8638 74.78 14.4087C74.78 12.5572 73.8945 11.1485 72.0028 11.1485C70.0307 11.1485 69.0647 12.3963 68.1792 16.0991C67.012 21.2107 64.6374 23.5049 60.8942 23.5049C56.5071 23.5049 54.0117 19.48 54.0117 14.9319C54.0117 9.37761 56.4669 5.75523 61.337 5.3125V10.0618C58.7611 10.5851 57.4731 12.517 57.4731 14.8917C57.4731 17.0248 58.6001 18.7153 60.4112 18.7153C62.3834 18.7153 63.5104 17.5078 64.3154 14.0867C65.4423 9.33736 67.0925 6.35896 71.3991 6.35896C75.7057 6.35896 78.2011 10.2228 78.2011 14.6904C78.2414 20.124 75.0617 22.6596 70.9564 23.1426Z" fill="#FAB823"/>
<path d="M99.0923 14.4904V24.5928H94.4637V15.1344C94.4637 14.4099 94.4637 13.5647 94.3832 12.639C94.2624 10.7473 93.216 9.45935 90.962 9.45935C88.7081 9.45935 86.9372 11.4315 86.9372 16.3821V24.5526H82.3086V6.6822H86.9372V9.5801L88.3056 7.44693C89.5936 6.52121 90.8815 6.19922 92.6122 6.19922C96.4359 6.19922 98.6093 8.0909 98.9715 11.2303C99.052 12.1158 99.0923 13.0415 99.0923 14.4904Z" fill="black"/>
<path d="M110.885 21.9357L109.999 23.8676C108.752 24.7128 107.222 25.0348 105.572 25.0348C102.473 25.0348 99.8164 23.2236 99.8164 19.8025C99.8164 15.8581 103.197 13.6444 109.677 13.6444H110.804V13.2822C110.804 12.759 110.804 12.1955 110.724 11.5918C110.603 10.3441 109.798 9.41834 107.947 9.41834C106.095 9.41834 105.089 10.5051 104.968 12.437L100.46 12.4772C100.581 8.45237 103.841 6.1582 108.148 6.1582C113.179 6.1582 115.03 8.33163 115.312 11.4308C115.393 12.276 115.433 13.2017 115.433 14.2079V20.0037C115.433 21.3319 115.513 22.5796 115.755 24.5518H111.207L110.885 21.9357ZM110.804 17.9913V16.5423C107.101 16.2606 104.606 17.1058 104.606 19.4805C104.606 21.0502 105.693 21.8149 107.343 21.8149C109.235 21.7747 110.804 20.4465 110.804 17.9913Z" fill="black"/>
<path d="M136.001 15.2954C136.001 21.7754 132.016 25.0758 127.428 25.0758C125.939 25.0758 124.128 24.7136 123.202 24.0696L122.035 22.2182V31.1936H117.406V6.6822H122.035V9.41911L123.363 7.44693C124.369 6.64195 126.18 6.19922 127.992 6.19922C133.023 6.19922 136.001 9.98259 136.001 15.2954ZM131.171 15.5771C131.171 11.9145 129.441 9.45936 126.663 9.45936C124.088 9.45936 122.035 11.0291 122.035 15.4161V16.2614C122.035 20.3265 124.369 21.7754 126.502 21.7754C129.199 21.7754 131.171 19.7227 131.171 15.5771Z" fill="black"/>
</svg>
