<svg width="15" height="19" viewBox="0 0 15 19" fill="none" xmlns="http://www.w3.org/2000/svg">
<path fill-rule="evenodd" clip-rule="evenodd" d="M4.982 8.55068C5.61005 9.15928 6.3534 9.46822 7.14447 9.43668C7.18054 9.43801 7.21684 9.43879 7.25265 9.43879C8.00368 9.43879 8.70807 9.13078 9.30747 8.55068C10.2905 9.36802 11.1789 9.91599 12.0108 10.2201C12.1542 10.2689 12.2853 10.3481 12.3954 10.4523C12.5054 10.5564 12.5917 10.683 12.6484 10.8234C13.0614 11.7863 13.1932 12.8974 13.0394 14.1262C13.0365 14.1641 13.0208 14.1999 12.9949 14.2278C12.969 14.2556 12.9344 14.2739 12.8968 14.2795C12.3321 14.3915 11.7643 14.4868 11.194 14.5652C11.2391 14.4687 11.2604 14.3627 11.2562 14.2562C11.252 14.1498 11.2224 14.0458 11.1699 13.9531C11.1173 13.8604 11.0434 13.7816 10.9542 13.7232C10.865 13.6649 10.7632 13.6288 10.6572 13.6178L8.59755 13.4028L7.75612 11.5107C7.70373 11.3923 7.61809 11.2916 7.50959 11.221C7.4011 11.1503 7.27441 11.1126 7.14492 11.1125C7.01543 11.1124 6.8887 11.1499 6.78011 11.2205C6.67152 11.291 6.58575 11.3916 6.5332 11.5099L5.69173 13.4028L3.63264 13.6178C3.52662 13.6287 3.42475 13.6649 3.33554 13.7232C3.24632 13.7815 3.17233 13.8603 3.11975 13.953C3.06717 14.0457 3.03751 14.1497 3.03324 14.2562C3.02898 14.3627 3.05024 14.4686 3.09525 14.5652C2.52514 14.4868 1.95748 14.3915 1.39301 14.2795C1.35528 14.274 1.32054 14.2558 1.29449 14.228C1.26843 14.2001 1.2526 14.1643 1.24958 14.1262C1.09635 12.8975 1.22783 11.7864 1.64087 10.8234C1.69764 10.683 1.78396 10.5565 1.89397 10.4524C2.00397 10.3483 2.13509 10.2691 2.27842 10.2201C3.11035 9.91603 3.99869 9.36802 4.982 8.55068ZM4.94028 2.38454C5.37818 1.59295 6.12038 1.18997 7.14314 1.18752C8.16886 1.19016 8.91113 1.59313 9.34885 2.38473C10.0228 3.6029 9.86839 5.65086 8.99704 7.04772C8.70543 7.5159 8.07976 8.29558 7.1739 8.24971C7.16436 8.24893 7.15453 8.24893 7.14447 8.24893C7.13442 8.24893 7.12484 8.24893 7.1153 8.24971C7.09031 8.25084 7.06529 8.25146 7.04027 8.25157C6.17445 8.25157 5.57609 7.50265 5.29216 7.04772C4.42104 5.65086 4.26648 3.6029 4.94036 2.38473L4.94028 2.38454ZM8.47869 15.483L9.37423 14.6777L8.17595 14.5523C8.05891 14.54 7.94716 14.4971 7.85194 14.428C7.75672 14.3588 7.68138 14.2658 7.63351 14.1583L7.14462 13.0578L6.65525 14.1585C6.60747 14.266 6.53217 14.359 6.43696 14.4282C6.34174 14.4973 6.22999 14.5401 6.11296 14.5522L4.91494 14.6776L5.811 15.4833C5.89824 15.562 5.96328 15.6622 5.99961 15.774C6.03594 15.8857 6.0423 16.0051 6.01803 16.12L5.76672 17.2984L6.80993 16.6956C6.91166 16.6369 7.02701 16.6061 7.14444 16.606C7.26186 16.606 7.37724 16.6368 7.47902 16.6953L8.52248 17.2984L8.27117 16.12C8.24698 16.005 8.25343 15.8856 8.28986 15.7738C8.32629 15.662 8.39143 15.5617 8.47876 15.483H8.47869ZM0.549386 10.3556C0.0521112 11.5149 -0.108612 12.833 0.0714085 14.2736C0.104276 14.5596 0.227869 14.8276 0.424082 15.0382C0.620295 15.2489 0.878817 15.3912 1.16178 15.4443C2.27079 15.6637 3.39108 15.8215 4.51753 15.9172L4.79403 16.1659L4.36244 18.1908C4.33533 18.3174 4.34554 18.4492 4.39184 18.5701C4.43814 18.691 4.51853 18.7959 4.62327 18.8721C4.72801 18.9482 4.85259 18.9923 4.98191 18.9991C5.11123 19.0058 5.23972 18.9749 5.3518 18.91L7.14462 17.8735L8.93756 18.9101C9.0496 18.9749 9.17804 19.0058 9.30731 18.9991C9.43658 18.9924 9.56113 18.9483 9.66587 18.8723C9.7706 18.7962 9.85102 18.6914 9.89738 18.5705C9.94374 18.4497 9.95405 18.3179 9.92706 18.1913L9.49517 16.1659L9.77168 15.9173C10.8981 15.8216 12.0184 15.6637 13.1274 15.4443C13.4104 15.3913 13.669 15.2491 13.8652 15.0384C14.0615 14.8277 14.185 14.5596 14.2178 14.2736C14.3978 12.833 14.2371 11.5149 13.7398 10.3556C13.6192 10.0663 13.4394 9.80557 13.2118 9.59013C12.9842 9.37469 12.7141 9.20935 12.4187 9.10476C11.7182 8.84919 10.92 8.34894 10.0409 7.61565C10.5319 6.8052 10.8487 5.8026 10.9346 4.78193C11.0295 3.65523 10.8402 2.62739 10.388 1.80978C9.7444 0.646234 8.59329 0.003711 7.14314 0C5.69585 0.003711 4.54458 0.646309 3.90117 1.80986C3.44887 2.62739 3.25987 3.65534 3.3545 4.78193C3.44041 5.80245 3.75774 6.8052 4.24818 7.61565C3.36908 8.34894 2.57081 8.84919 1.87095 9.10476C1.57552 9.20938 1.30529 9.37473 1.07767 9.59016C0.850044 9.8056 0.670085 10.0663 0.549386 10.3556Z" fill="#273945" fill-opacity="0.75"/>
</svg>
