<svg width="28" height="26" viewBox="0 0 28 26" fill="none" xmlns="http://www.w3.org/2000/svg">
<path d="M13.9178 0C15.9894 0 18.8449 7.11133 19.1612 7.30449C19.4776 7.49766 27.147 8.4066 27.7831 9.8673C28.4191 11.3285 22.5181 16.6143 22.3722 16.9743C22.2262 17.3339 23.7003 24.8497 22.4874 25.8337C21.2744 26.8172 14.341 22.9711 13.9183 22.9687C13.4955 22.9663 6.84237 26.8378 5.34918 25.8337C3.856 24.8296 5.57226 17.3812 5.46438 16.9743C5.3565 16.5674 -0.62111 11.8023 0.052995 9.8673C0.7271 7.93229 8.39949 7.50483 8.6748 7.30449C8.9501 7.10415 11.8467 0 13.9178 0Z" fill="url(#paint0_linear_1080_1534)"/>
<path d="M13.9163 0.882812C15.8469 0.882812 18.3788 7.76559 18.6736 7.94585C18.9684 8.12563 26.2464 8.71804 26.8395 10.0802C27.4326 11.442 21.802 16.242 21.6663 16.5772C21.5301 16.9123 23.0341 24.0452 21.9036 24.9618C20.7731 25.8788 14.3107 22.1666 13.9163 22.1642C13.5219 22.1618 7.32073 25.8975 5.92908 24.9618C4.53694 24.0261 6.39671 17.0835 6.29615 16.7044C6.1956 16.3257 0.364424 11.8838 0.992645 10.0807C1.62087 8.2772 9.03211 8.13328 9.28887 7.94632C9.54562 7.75937 11.9858 0.883291 13.9163 0.883291V0.882812Z" fill="url(#paint1_linear_1080_1534)"/>
<path d="M2.68472 10.4145C2.55049 9.13215 6.84496 8.37716 7.03484 9.87806C7.22423 11.3785 2.86826 12.1617 2.68472 10.4145Z" fill="white"/>
<path d="M8.13341 9.45711C8.10119 8.63231 9.38495 8.5821 9.45182 9.25868C9.5265 10.0165 8.16318 10.2284 8.13341 9.45711Z" fill="white"/>
<g opacity="0.6">
<g opacity="0.6">
<path d="M10.2196 16.1804C10.2196 17.0147 9.4718 17.6913 8.54925 17.6913C7.62671 17.6913 6.87891 17.0147 6.87891 16.1804C6.87891 15.346 7.62719 14.6699 8.54925 14.6699C9.47131 14.6699 10.2196 15.346 10.2196 16.1804Z" fill="#EC6083"/>
</g>
<g opacity="0.6">
<path d="M21.2938 16.1804C21.2938 17.0147 20.546 17.6913 19.6235 17.6913C18.7009 17.6913 17.9531 17.0147 17.9531 16.1804C17.9531 15.346 18.7009 14.6699 19.6235 14.6699C20.546 14.6699 21.2938 15.346 21.2938 16.1804Z" fill="#EC6083"/>
</g>
</g>
<path d="M9.23354 11.1446C6.62795 11.3091 7.33475 15.0635 9.4283 14.9951C11.5223 14.9263 11.8391 10.9806 9.23354 11.1446Z" fill="#52190D"/>
<path d="M10.1392 12.9128C9.58514 12.8645 9.40893 13.8906 10.0366 13.9857C10.6644 14.0809 10.9265 12.9807 10.1392 12.9128Z" fill="white"/>
<path d="M18.6767 11.1446C21.2818 11.3091 20.5755 15.0635 18.4814 14.9951C16.3879 14.9263 16.0706 10.9806 18.6767 11.1446Z" fill="#52190D"/>
<path d="M17.7694 12.9128C18.3239 12.8645 18.4997 13.8906 17.8719 13.9857C17.2437 14.0809 16.9821 12.9807 17.7694 12.9128Z" fill="white"/>
<path d="M16.7473 16.8394C17.2306 16.2518 16.5321 15.7985 16.0728 16.3436C15.1888 17.3936 12.8077 17.3056 11.9106 16.3436C11.4239 15.8214 10.7981 16.2183 11.236 16.8394C12.2664 18.2992 15.4031 18.4723 16.7473 16.8394Z" fill="#882A2A"/>
<defs>
<linearGradient id="paint0_linear_1080_1534" x1="6.95775" y1="3.02511" x2="21.4783" y2="24.8059" gradientUnits="userSpaceOnUse">
<stop stop-color="#FFD56A"/>
<stop offset="1" stop-color="#DB8208"/>
</linearGradient>
<linearGradient id="paint1_linear_1080_1534" x1="7.45936" y1="7.01874" x2="22.3283" y2="25.2527" gradientUnits="userSpaceOnUse">
<stop offset="0.04" stop-color="#FBEE6C"/>
<stop offset="0.08" stop-color="#FBEE6C"/>
<stop offset="0.34" stop-color="#FBE563"/>
<stop offset="0.682627" stop-color="#F9C52E"/>
<stop offset="0.86" stop-color="#F5B926"/>
</linearGradient>
</defs>
</svg>
