<svg width="44" height="45" viewBox="0 0 44 45" fill="none" xmlns="http://www.w3.org/2000/svg">
<circle cx="22" cy="22.4512" r="22" fill="#B73377" fill-opacity="0.12"/>
<path d="M29 19.5206C29 15.6526 25.8719 12.5152 22.0075 12.5C13.5329 12.69 12.376 24.537 20.5682 26.3994V28.8303H18.0525C17.7561 28.8303 17.5158 29.0706 17.5158 29.367V31.1157C17.5158 31.4121 17.7561 31.6524 18.0525 31.6524H20.5682V34.287C20.5682 34.5834 20.8085 34.8237 21.1049 34.8237H22.8536C23.15 34.8237 23.3903 34.5834 23.3903 34.287V31.6524H25.906C26.2024 31.6524 26.4427 31.4121 26.4427 31.1157V29.367C26.4427 29.0706 26.2024 28.8303 25.906 28.8303H23.3903V26.3994C26.5914 25.7463 29 22.9148 29 19.5206ZM21.9793 23.6678C19.6889 23.6678 17.8321 21.8111 17.8321 19.5207C18.0355 14.0254 25.924 14.0269 26.1265 19.5207C26.1265 21.8111 24.2697 23.6678 21.9793 23.6678Z" fill="#B73377"/>
</svg>
