<svg width="38" height="38" viewBox="0 0 38 38" fill="none" xmlns="http://www.w3.org/2000/svg">
<circle cx="19" cy="19" r="19" fill="#EFEFEF"/>
<mask id="mask0_489_678" style="mask-type:luminance" maskUnits="userSpaceOnUse" x="9" y="9" width="21" height="21">
<path fill-rule="evenodd" clip-rule="evenodd" d="M29.6525 17.5036H19.6907V21.5192H25.4248C24.8903 24.0703 22.655 25.5349 19.6907 25.5349C16.1919 25.5349 13.3735 22.7948 13.3735 19.3933C13.3735 15.9919 16.1919 13.2518 19.6907 13.2518C21.1971 13.2518 22.5578 13.7715 23.6269 14.6219L26.7369 11.5983C24.8417 9.99209 22.412 9 19.6907 9C13.7622 9 9 13.6298 9 19.3933C9 25.1569 13.7622 29.7867 19.6907 29.7867C25.0361 29.7867 29.8955 26.0073 29.8955 19.3933C29.8955 18.7792 29.7983 18.1178 29.6525 17.5036Z" fill="white"/>
</mask>
<g mask="url(#mask0_489_678)">
<path d="M8.02832 25.535V13.252L16.2893 19.3935L8.02832 25.535Z" fill="#FBBC05"/>
</g>
<mask id="mask1_489_678" style="mask-type:luminance" maskUnits="userSpaceOnUse" x="9" y="9" width="21" height="21">
<path fill-rule="evenodd" clip-rule="evenodd" d="M29.6525 17.5036H19.6907V21.5192H25.4248C24.8903 24.0703 22.655 25.5349 19.6907 25.5349C16.1919 25.5349 13.3735 22.7948 13.3735 19.3933C13.3735 15.9919 16.1919 13.2518 19.6907 13.2518C21.1971 13.2518 22.5578 13.7715 23.6269 14.6219L26.7369 11.5983C24.8417 9.99209 22.412 9 19.6907 9C13.7622 9 9 13.6298 9 19.3933C9 25.1569 13.7622 29.7867 19.6907 29.7867C25.0361 29.7867 29.8955 26.0073 29.8955 19.3933C29.8955 18.7792 29.7983 18.1178 29.6525 17.5036Z" fill="white"/>
</mask>
<g mask="url(#mask1_489_678)">
<path d="M8.02832 13.2504L16.2893 19.3919L19.6909 16.5101L31.3535 14.6677V8.05371H8.02832V13.2504Z" fill="#EA4335"/>
</g>
<mask id="mask2_489_678" style="mask-type:luminance" maskUnits="userSpaceOnUse" x="9" y="9" width="21" height="21">
<path fill-rule="evenodd" clip-rule="evenodd" d="M29.6525 17.5036H19.6907V21.5192H25.4248C24.8903 24.0703 22.655 25.5349 19.6907 25.5349C16.1919 25.5349 13.3735 22.7948 13.3735 19.3933C13.3735 15.9919 16.1919 13.2518 19.6907 13.2518C21.1971 13.2518 22.5578 13.7715 23.6269 14.6219L26.7369 11.5983C24.8417 9.99209 22.412 9 19.6907 9C13.7622 9 9 13.6298 9 19.3933C9 25.1569 13.7622 29.7867 19.6907 29.7867C25.0361 29.7867 29.8955 26.0073 29.8955 19.3933C29.8955 18.7792 29.7983 18.1178 29.6525 17.5036Z" fill="white"/>
</mask>
<g mask="url(#mask2_489_678)">
<path d="M8.02832 25.5334L22.6066 14.6677L26.4455 15.1401L31.3535 8.05371V30.7301H8.02832V25.5334Z" fill="#34A853"/>
</g>
<mask id="mask3_489_678" style="mask-type:luminance" maskUnits="userSpaceOnUse" x="9" y="9" width="21" height="21">
<path fill-rule="evenodd" clip-rule="evenodd" d="M29.6525 17.5036H19.6907V21.5192H25.4248C24.8903 24.0703 22.655 25.5349 19.6907 25.5349C16.1919 25.5349 13.3735 22.7948 13.3735 19.3933C13.3735 15.9919 16.1919 13.2518 19.6907 13.2518C21.1971 13.2518 22.5578 13.7715 23.6269 14.6219L26.7369 11.5983C24.8417 9.99209 22.412 9 19.6907 9C13.7622 9 9 13.6298 9 19.3933C9 25.1569 13.7622 29.7867 19.6907 29.7867C25.0361 29.7867 29.8955 26.0073 29.8955 19.3933C29.8955 18.7792 29.7983 18.1178 29.6525 17.5036Z" fill="white"/>
</mask>
<g mask="url(#mask3_489_678)">
<path d="M31.3517 30.7317L16.2875 19.3935L14.3438 17.9762L31.3517 13.252V30.7317Z" fill="#4285F4"/>
</g>
</svg>
