<svg width="115" height="12" viewBox="0 0 115 12" fill="none" xmlns="http://www.w3.org/2000/svg">
<path d="M5.60641 0.577229C8.42661 0.577229 10.7128 2.86345 10.7128 5.68363C10.7128 8.50382 8.42661 10.79 5.60641 10.79C2.78622 10.79 0.5 8.50382 0.5 5.68363C0.5 2.86345 2.78622 0.577229 5.60641 0.577229Z" fill="white" stroke="white"/>
<path d="M31.4199 0.577229C34.2401 0.577229 36.5263 2.86345 36.5263 5.68363C36.5263 8.50382 34.2401 10.79 31.4199 10.79C28.5997 10.79 26.3135 8.50382 26.3135 5.68363C26.3135 2.86345 28.5997 0.577229 31.4199 0.577229Z" fill="white" stroke="white"/>
<path d="M57.2235 0.577229C60.0437 0.577229 62.3299 2.86345 62.3299 5.68363C62.3299 8.50382 60.0437 10.79 57.2235 10.79C54.4033 10.79 52.1171 8.50382 52.1171 5.68363C52.1171 2.86345 54.4033 0.577229 57.2235 0.577229Z" stroke="white"/>
<path d="M83.0368 0.577229C85.857 0.577229 88.1432 2.86345 88.1432 5.68363C88.1432 8.50382 85.857 10.79 83.0368 10.79C80.2166 10.79 77.9304 8.50382 77.9304 5.68363C77.9304 2.86345 80.2166 0.577229 83.0368 0.577229Z" stroke="white"/>
<path d="M108.844 0.577229C111.665 0.577229 113.951 2.86345 113.951 5.68363C113.951 8.50382 111.665 10.79 108.844 10.79C106.024 10.79 103.738 8.50382 103.738 5.68363C103.738 2.86345 106.024 0.577229 108.844 0.577229Z" stroke="white"/>
</svg>
