<svg width="44" height="45" viewBox="0 0 44 45" fill="none" xmlns="http://www.w3.org/2000/svg">
<circle cx="22" cy="22.4512" r="22" fill="#2DA9D9" fill-opacity="0.15"/>
<path d="M20.1848 32C16.2231 32 13 28.7769 13 24.8152C13 20.8536 16.2231 17.6305 20.1848 17.6305C24.1464 17.6305 27.3695 20.8536 27.3695 24.8152C27.3695 28.7769 24.1464 32 20.1848 32ZM20.1848 20.3176C17.7047 20.3176 15.6869 22.3352 15.6869 24.8153C15.6869 27.2955 17.7046 29.3132 20.1848 29.3132C22.6648 29.3132 24.6828 27.2956 24.6828 24.8153C24.6826 22.3352 22.6648 20.3176 20.1848 20.3176ZM31.5 20.6848H28.8131V16.1869H24.3152V13.5H31.5V20.6848Z" fill="#2DA9D9"/>
<path d="M29.2037 13.8926L31.1033 15.7922L25.2629 21.6326L23.3633 19.7328L29.2037 13.8926Z" fill="#2DA9D9"/>
</svg>
