<svg width="19" height="19" viewBox="0 0 19 19" fill="none" xmlns="http://www.w3.org/2000/svg">
<path d="M8.53321 8.76056L7.45881 7.67436C7.42729 7.64255 7.40228 7.60476 7.38522 7.56317C7.36816 7.52157 7.35938 7.47698 7.35938 7.43195C7.35938 7.38692 7.36816 7.34232 7.38522 7.30073C7.40228 7.25913 7.42729 7.22135 7.45881 7.18954C7.59481 7.05544 7.80901 7.05544 7.94161 7.18954L8.77461 8.03195L10.6786 6.10643C10.8112 5.97233 11.0288 5.97233 11.1614 6.10643C11.294 6.24053 11.294 6.45715 11.1614 6.59469L9.01601 8.7609C8.88341 8.895 8.66921 8.895 8.53321 8.76056Z" fill="#EA3232"/>
<path d="M9.51855 11.0996C7.83589 11.0996 6.28311 9.91373 5.86729 8.2368C5.44059 6.51759 6.26951 4.70038 7.83827 3.91642C9.40159 3.13521 11.3297 3.56604 12.4225 4.94107C13.5078 6.30681 13.5122 8.29492 12.4334 9.66857C12.3771 9.73944 12.2954 9.78489 12.2061 9.79501C12.1168 9.80512 12.0271 9.77906 11.9568 9.72253C11.8864 9.666 11.841 9.5836 11.8306 9.49333C11.8201 9.40307 11.8454 9.31228 11.9009 9.24083C12.7842 8.11646 12.7805 6.4894 11.8928 5.37191C10.9979 4.24651 9.41995 3.89373 8.13951 4.53293C6.85567 5.17454 6.17737 6.66166 6.52689 8.06935C6.89817 9.5661 8.37785 10.5846 9.89119 10.3879C10.2698 10.3389 10.636 10.2185 10.9707 10.033C11.0099 10.0102 11.0533 9.9955 11.0982 9.98982C11.1431 9.98414 11.1887 9.98759 11.2323 9.99997C11.2759 10.0123 11.3166 10.0334 11.352 10.0619C11.3874 10.0904 11.4169 10.1258 11.4386 10.1659C11.4603 10.2061 11.4739 10.2502 11.4786 10.2958C11.4832 10.3413 11.4788 10.3873 11.4656 10.4311C11.4524 10.4749 11.4307 10.5156 11.4018 10.5508C11.3729 10.586 11.3373 10.615 11.2971 10.6361C10.7517 10.9381 10.1403 11.0975 9.51855 11.0996Z" fill="#EA3232"/>
<path d="M15.5286 14.2244H16.3993H16.3993C16.8372 14.2239 17.2568 14.0478 17.5662 13.7349C17.8756 13.422 18.0495 12.9979 18.05 12.5556V12.5556V2.61881V2.61876C18.0495 2.1765 17.8756 1.75238 17.5662 1.43949C17.2568 1.12657 16.8372 0.95047 16.3993 0.95H16.3993L2.60072 0.95L2.60067 0.95C2.16284 0.95047 1.7432 1.12657 1.43378 1.43949C1.12439 1.75238 0.950464 2.1765 0.95 2.61876V2.61881L0.95 12.5559L0.95 12.556C0.950464 12.9982 1.12439 13.4224 1.43378 13.7353C1.7432 14.0482 2.16284 14.2243 2.60067 14.2247H2.60072H10.7347L14.8787 17.9505L14.8787 17.9506C14.9517 18.016 15.0445 18.05 15.1382 18.05L15.5286 14.2244ZM15.5286 14.2244V17.6562C15.5286 17.7078 15.5185 17.759 15.4989 17.8068C15.4793 17.8545 15.4506 17.898 15.4144 17.9346C15.3782 17.9712 15.3351 18.0002 15.2877 18.0201C15.2403 18.0399 15.1895 18.05 15.1382 18.05L15.5286 14.2244ZM14.7486 16.7779V13.8306C14.7486 13.7263 14.7895 13.6262 14.8626 13.5523C14.9357 13.4783 15.0349 13.4367 15.1386 13.4367H16.3992C16.6299 13.4365 16.8512 13.3437 17.0145 13.1785C17.1778 13.0134 17.2697 12.7893 17.27 12.5555V2.61887C17.2697 2.38506 17.1778 2.16102 17.0145 1.99586C16.8512 1.83074 16.6299 1.73796 16.3993 1.73769C16.3993 1.73769 16.3992 1.73769 16.3992 1.73769H2.60078L2.60072 1.73769M14.7486 16.7779L1.94997 1.96071C2.12258 1.78615 2.35661 1.68796 2.60072 1.68769V1.73769M14.7486 16.7779L11.1426 13.5362L11.1425 13.536C11.0709 13.4723 10.9789 13.4367 10.8831 13.4367H2.60078M14.7486 16.7779L2.60078 13.4367M2.60072 1.73769C2.37006 1.73796 2.1488 1.83074 1.98552 1.99586C1.82223 2.16101 1.73027 2.38503 1.73 2.61881C1.73 2.61883 1.73 2.61885 1.73 2.61887M2.60072 1.73769L1.73 2.61887M1.73 2.61887V12.5555L1.73 12.5556M1.73 2.61887L1.94997 13.2137C1.77736 13.0391 1.68027 12.8025 1.68 12.5556H1.73M1.73 12.5556C1.73027 12.7894 1.82223 13.0134 1.98552 13.1785C2.14882 13.3437 2.37009 13.4365 2.60078 13.4367M1.73 12.5556L2.60078 13.4367" fill="#EA3232" stroke="#EA3232" stroke-width="0.1"/>
</svg>
