<svg width="44" height="45" viewBox="0 0 44 45" fill="none" xmlns="http://www.w3.org/2000/svg">
<circle cx="22" cy="22.4512" r="22" fill="#FFF433" fill-opacity="0.42"/>
<path d="M23.1481 22.7517V17.734L25.4063 19.0378L27.0305 16.2246L24.7723 14.9208L27.0305 13.617L25.4063 10.8038L23.1481 12.1076V9.5H19.8997V12.1076L17.6415 10.8038L16.0173 13.617L18.2755 14.9208L16.0173 16.2247L17.6415 19.0379L19.8997 17.7341V22.7517C17.0824 23.4735 15 26.0294 15 29.0717C15 32.6747 17.9208 35.5956 21.5239 35.5956C25.1269 35.5956 28.0478 32.6747 28.0478 29.0717C28.0478 26.0294 25.9653 23.4735 23.1481 22.7517ZM21.5239 32.3472C19.7178 32.3472 18.2484 30.8778 18.2484 29.0717C18.2484 27.2655 19.7177 25.7962 21.5239 25.7962C23.33 25.7962 24.7994 27.2655 24.7994 29.0717C24.7994 30.8778 23.33 32.3472 21.5239 32.3472Z" fill="#9B59D0"/>
</svg>
