<svg width="17" height="18" viewBox="0 0 17 18" fill="none" xmlns="http://www.w3.org/2000/svg">
<path d="M2.73513 3.66512C2.81562 3.66512 2.89281 3.63315 2.94973 3.57623C3.00664 3.51932 3.03862 3.44212 3.03862 3.36163V2.75466C3.03862 2.67417 3.00664 2.59698 2.94973 2.54006C2.89281 2.48315 2.81562 2.45117 2.73513 2.45117C2.65464 2.45117 2.57744 2.48315 2.52053 2.54006C2.46361 2.59698 2.43164 2.67417 2.43164 2.75466V3.36163C2.43164 3.44212 2.46361 3.51932 2.52053 3.57623C2.57744 3.63315 2.65464 3.66512 2.73513 3.66512ZM5.46621 3.36163V2.75466C5.45954 2.35588 4.86592 2.35557 4.85924 2.75466V3.36163C4.86592 3.76042 5.45954 3.76072 5.46621 3.36163Z" fill="#656BAB"/>
<path d="M1.79982 7.28096C5.33909 9.56198 9.55696 5.36748 7.26078 1.82001C7.21691 1.75248 7.14801 1.70514 7.06924 1.6884C6.99047 1.67167 6.90828 1.68692 6.84075 1.73078C6.77322 1.77465 6.72588 1.84355 6.70915 1.92232C6.69241 2.00109 6.70766 2.08328 6.75152 2.15081C9.01038 5.96322 3.70754 9.40416 1.14823 5.78963C-0.781343 2.79511 2.76795 -0.773902 5.76944 1.16903C5.83693 1.20982 5.91765 1.22276 5.99451 1.20513C6.07138 1.18749 6.13837 1.14065 6.18133 1.07452C6.22429 1.00838 6.23985 0.928133 6.22472 0.850735C6.20959 0.773337 6.16495 0.704858 6.10024 0.659774C1.66628 -2.0613 -2.48694 4.32439 1.79982 7.28096Z" fill="#656BAB"/>
<path d="M2.23382 5.6878C3.1807 6.63468 4.7206 6.63468 5.66718 5.6878C5.69616 5.6598 5.71928 5.62631 5.73519 5.58929C5.75109 5.55226 5.75946 5.51244 5.75981 5.47214C5.76017 5.43184 5.75249 5.39188 5.73723 5.35458C5.72197 5.31729 5.69943 5.2834 5.67094 5.25491C5.64244 5.22641 5.60856 5.20387 5.57126 5.18862C5.53396 5.17336 5.494 5.16568 5.4537 5.16603C5.4134 5.16638 5.37358 5.17475 5.33656 5.19066C5.29953 5.20656 5.26604 5.22968 5.23804 5.25867C4.8962 5.59946 4.43319 5.79083 3.9505 5.79083C3.4678 5.79083 3.00479 5.59946 2.66295 5.25867C2.38222 4.97946 1.9537 5.40586 2.23382 5.6878ZM3.04019 12.4683V11.8613C3.03351 11.4626 2.43989 11.4623 2.43321 11.8613V12.4683C2.43989 12.8671 3.03351 12.8674 3.04019 12.4683ZM5.46809 12.4683V11.8613C5.46141 11.4626 4.86779 11.4623 4.86111 11.8613V12.4683C4.86779 12.8671 5.46141 12.8674 5.46809 12.4683Z" fill="#656BAB"/>
<path d="M3.95002 17.0203C4.71663 17.0203 5.46048 16.8009 6.10023 16.3858C6.16776 16.3419 6.2151 16.273 6.23183 16.1942C6.24857 16.1155 6.23332 16.0333 6.18945 15.9657C6.14559 15.8982 6.07669 15.8509 5.99792 15.8341C5.91915 15.8174 5.83696 15.8326 5.76943 15.8765C2.74244 17.7979 -0.77225 14.2826 1.14822 11.2559C3.65078 7.62831 9.05316 11.1421 6.75151 14.8947C6.53968 15.2322 7.03831 15.556 7.26077 15.2249C8.97001 12.6653 7.03436 9.08961 3.95002 9.12967C1.82985 9.08566 -0.0396309 10.9536 0.00467825 13.075C0.00467825 15.2504 1.77462 17.0203 3.95002 17.0203Z" fill="#656BAB"/>
<path d="M2.23339 15.1099C2.2903 15.1668 2.36748 15.1988 2.44795 15.1988C2.52843 15.1988 2.60561 15.1668 2.66252 15.1099C3.00428 14.769 3.46732 14.5775 3.95007 14.5775C4.43281 14.5775 4.89585 14.769 5.23761 15.1099C5.26561 15.1389 5.2991 15.1621 5.33612 15.178C5.37315 15.1939 5.41297 15.2022 5.45327 15.2026C5.49357 15.2029 5.53353 15.1953 5.57083 15.18C5.60813 15.1647 5.64201 15.1422 5.67051 15.1137C5.699 15.0852 5.72154 15.0513 5.7368 15.014C5.75206 14.9767 5.75973 14.9368 5.75938 14.8965C5.75903 14.8562 5.75066 14.8164 5.73476 14.7793C5.71885 14.7423 5.69573 14.7088 5.66674 14.6808C4.72047 13.7342 3.18027 13.7339 2.23339 14.6808C2.17649 14.7377 2.14453 14.8149 2.14453 14.8954C2.14453 14.9759 2.17649 15.053 2.23339 15.1099ZM16.6964 0.0253906H9.41269C9.3322 0.0253906 9.25501 0.0573652 9.19809 0.11428C9.14118 0.171195 9.10921 0.248388 9.10921 0.328878V7.61258C9.10921 7.69307 9.14118 7.77027 9.19809 7.82718C9.25501 7.8841 9.3322 7.91607 9.41269 7.91607H16.6964C16.7769 7.91607 16.8541 7.8841 16.911 7.82718C16.9679 7.77027 16.9999 7.69307 16.9999 7.61258V3.36376C16.9923 2.96437 16.4002 2.96497 16.3929 3.36376V7.3091H9.71618V0.632366H16.3929V1.84632C16.399 2.24571 16.9938 2.24449 16.9999 1.84632V0.328878C16.9999 0.248388 16.9679 0.171195 16.911 0.11428C16.8541 0.0573652 16.7769 0.0253906 16.6964 0.0253906ZM16.6964 9.13002H9.41269C9.3322 9.13002 9.25501 9.162 9.19809 9.21891C9.14118 9.27583 9.10921 9.35302 9.10921 9.43351V16.7172C9.11679 17.1148 9.70859 17.1175 9.71618 16.7172V9.737H16.3929V16.4137H10.9301C10.8496 16.4137 10.7724 16.4457 10.7155 16.5026C10.6586 16.5595 10.6266 16.6367 10.6266 16.7172C10.6266 16.7977 10.6586 16.8749 10.7155 16.9318C10.7724 16.9887 10.8496 17.0207 10.9301 17.0207H16.6964C16.7769 17.0207 16.8541 16.9887 16.911 16.9318C16.9679 16.8749 16.9999 16.7977 16.9999 16.7172V9.43351C16.9999 9.35302 16.9679 9.27583 16.911 9.21891C16.8541 9.162 16.7769 9.13002 16.6964 9.13002Z" fill="#656BAB"/>
<path d="M14.6608 2.54046L12.4475 4.7538L11.4481 3.75441C11.1674 3.4752 10.7389 3.9016 11.019 4.18354L12.2329 5.39749C12.2898 5.45439 12.367 5.48635 12.4475 5.48635C12.528 5.48635 12.6051 5.45439 12.6621 5.39749L15.09 2.96959C15.3683 2.68887 14.9437 2.26034 14.6608 2.54046Z" fill="#656BAB"/>
</svg>
