<svg width="20" height="19" viewBox="0 0 20 19" fill="none" xmlns="http://www.w3.org/2000/svg">
<path d="M13.4303 11.5908H11.0875L11.5756 9.96882C11.7249 9.48384 11.6779 8.95964 11.4448 8.50891C11.2117 8.05817 10.8111 7.71688 10.3291 7.55839C10.1906 7.51276 10.0442 7.4962 9.89911 7.50977C9.75397 7.52333 9.61319 7.56672 9.4856 7.63721C9.35801 7.7077 9.24635 7.80378 9.15761 7.91943C9.06888 8.03508 9.00498 8.16781 8.96992 8.3093L8.89482 8.62468C8.61163 9.76113 8.02506 10.7993 7.19776 11.6283L6.76974 12.0488C6.66098 11.9118 6.52292 11.8009 6.36569 11.7243C6.20846 11.6476 6.03606 11.6071 5.86114 11.6058H5.31298C5.00488 11.6058 4.70918 11.7271 4.48992 11.9436C4.27066 12.16 4.1455 12.4541 4.14155 12.7622V17.5981C4.14155 17.9088 4.26497 18.2067 4.48466 18.4264C4.70434 18.6461 5.0023 18.7695 5.31298 18.7695H5.86114C6.06278 18.769 6.26085 18.7162 6.43592 18.6161C6.611 18.5161 6.75708 18.3723 6.85985 18.1988L6.96498 18.2514C7.64366 18.5903 8.39154 18.7676 9.15013 18.7695H11.8459C12.2916 18.7717 12.7308 18.663 13.124 18.4533C13.5172 18.2435 13.8522 17.9393 14.0986 17.568C14.6233 16.7836 14.9029 15.861 14.9021 14.9173V13.0476C14.9021 12.855 14.864 12.6643 14.7898 12.4866C14.7157 12.3089 14.607 12.1476 14.4701 12.0121C14.3333 11.8766 14.1709 11.7697 13.9924 11.6973C13.8139 11.625 13.6229 11.5888 13.4303 11.5908ZM6.25162 17.5981C6.25162 17.7096 6.20731 17.8166 6.12845 17.8954C6.04959 17.9743 5.94263 18.0186 5.8311 18.0186H5.31298C5.20145 18.0186 5.09449 17.9743 5.01563 17.8954C4.93677 17.8166 4.89247 17.7096 4.89247 17.5981V12.7622C4.89247 12.6507 4.93677 12.5437 5.01563 12.4649C5.09449 12.386 5.20145 12.3417 5.31298 12.3417H5.86114C5.96738 12.3493 6.06678 12.3969 6.13925 12.475C6.21173 12.553 6.25189 12.6557 6.25162 12.7622V17.5981ZM14.1362 14.9173C14.1393 15.7186 13.9041 16.5028 13.4604 17.1701C13.2828 17.4355 13.0427 17.6531 12.7611 17.8037C12.4795 17.9543 12.1652 18.0333 11.8459 18.0336H9.15013C8.50902 18.033 7.87676 17.8839 7.30289 17.5981L7.00253 17.4479V12.8373L7.69337 12.1465C8.61767 11.2223 9.27421 10.0649 9.59317 8.79739L9.66826 8.48952C9.69056 8.40715 9.74455 8.33696 9.81845 8.29428C9.85634 8.27774 9.89724 8.26921 9.93859 8.26921C9.97994 8.26921 10.0208 8.27774 10.0587 8.29428C10.2067 8.34349 10.3435 8.42139 10.4614 8.52353C10.5792 8.62566 10.6758 8.75003 10.7455 8.88952C10.8153 9.029 10.8569 9.18087 10.8678 9.33643C10.8788 9.49199 10.8591 9.6482 10.8096 9.79611L10.1789 11.9062C10.1626 11.9621 10.1595 12.0211 10.1699 12.0785C10.1803 12.1358 10.204 12.1899 10.239 12.2366C10.2731 12.2841 10.3182 12.3226 10.3706 12.3488C10.4229 12.3749 10.4808 12.388 10.5393 12.3868H13.3853C13.478 12.3868 13.5698 12.405 13.6554 12.4405C13.741 12.476 13.8188 12.5279 13.8844 12.5935C13.9499 12.659 14.0019 12.7369 14.0374 12.8225C14.0729 12.9081 14.0911 12.9999 14.0911 13.0926L14.1362 14.9173ZM7.75344 4.352L7.51315 5.74118C7.48425 5.89492 7.50001 6.05373 7.55856 6.19878C7.61712 6.34384 7.71602 6.46908 7.84355 6.55968C7.98471 6.66492 8.15558 6.72275 8.33164 6.72488C8.46756 6.72272 8.60117 6.68932 8.72211 6.62726L10.0062 5.96646L11.2602 6.62726C11.3981 6.70007 11.5538 6.73236 11.7092 6.72041C11.8647 6.70845 12.0136 6.65272 12.1388 6.55968C12.265 6.46967 12.363 6.34566 12.4215 6.20209C12.48 6.05852 12.4965 5.90128 12.4692 5.74869L12.2589 4.352L13.2426 3.37581C13.3562 3.26837 13.437 3.13088 13.4755 2.97935C13.5141 2.82781 13.5088 2.66844 13.4604 2.51977C13.4118 2.37126 13.3229 2.2392 13.2035 2.1384C13.0842 2.0376 12.9391 1.97204 12.7845 1.94908L11.3803 1.74633L10.7571 0.462276C10.687 0.323269 10.5797 0.206452 10.4471 0.124833C10.3145 0.0432154 10.1619 0 10.0062 0C9.85049 0 9.69785 0.0432154 9.56527 0.124833C9.4327 0.206452 9.32537 0.323269 9.25526 0.462276L8.632 1.73132L7.2278 1.93406C7.07326 1.95703 6.92817 2.02258 6.8088 2.12338C6.68943 2.22418 6.6005 2.35624 6.55198 2.50476C6.50041 2.65548 6.49354 2.81791 6.53217 2.97246C6.57081 3.127 6.65331 3.26708 6.76974 3.37581L7.75344 4.352ZM7.30289 2.67746L8.90233 2.44468C8.97458 2.44936 9.04661 2.43262 9.10938 2.39655C9.17216 2.36049 9.22291 2.3067 9.25526 2.24194L10.0062 0.792677C10.0128 0.778298 10.0233 0.766113 10.0367 0.757571C10.05 0.749029 10.0654 0.744488 10.0813 0.744488C10.0971 0.744488 10.1126 0.749029 10.1259 0.757571C10.1392 0.766113 10.1498 0.778298 10.1564 0.792677L10.9073 2.24194C10.9343 2.29677 10.9745 2.34402 11.0243 2.37941C11.0741 2.41481 11.132 2.43724 11.1926 2.44468L12.7921 2.67746C12.8076 2.68064 12.8221 2.68786 12.8339 2.69841C12.8458 2.70896 12.8547 2.72246 12.8596 2.73754C12.8669 2.75009 12.8707 2.76434 12.8707 2.77884C12.8707 2.79334 12.8669 2.80758 12.8596 2.82014L11.7032 3.94651C11.6595 3.99021 11.6266 4.0435 11.607 4.10216C11.5875 4.16081 11.5818 4.22321 11.5906 4.28442L11.8684 5.86884C11.8735 5.88481 11.8725 5.90211 11.8656 5.91738C11.8586 5.93264 11.8463 5.94478 11.8309 5.95144C11.8179 5.96119 11.8021 5.96646 11.7858 5.96646C11.7696 5.96646 11.7538 5.96119 11.7408 5.95144L10.314 5.20053C10.2613 5.17093 10.2018 5.15538 10.1413 5.15538C10.0808 5.15538 10.0214 5.17093 9.96863 5.20053L8.53439 5.95144C8.52256 5.96057 8.50803 5.96553 8.49309 5.96553C8.47814 5.96553 8.46362 5.96057 8.45179 5.95144C8.4364 5.94478 8.42403 5.93264 8.41709 5.91738C8.41015 5.90211 8.40914 5.88481 8.41424 5.86884L8.69208 4.28442C8.70084 4.22321 8.69522 4.16081 8.67567 4.10216C8.65612 4.0435 8.62317 3.99021 8.57944 3.94651L7.42304 2.82014C7.41579 2.80758 7.41197 2.79334 7.41197 2.77884C7.41197 2.76434 7.41579 2.75009 7.42304 2.73754C7.40354 2.73864 7.3842 2.73338 7.36795 2.72255C7.3517 2.71171 7.33941 2.69589 7.33293 2.67746H7.30289ZM5.0051 8.81992C5.11695 8.82196 5.22785 8.79899 5.32968 8.75267C5.43152 8.70636 5.52171 8.63787 5.59369 8.55223C5.66566 8.46658 5.71758 8.36594 5.74567 8.25765C5.77375 8.14936 5.77729 8.03617 5.75601 7.92634L5.55327 6.78495L6.39429 5.96646C6.50025 5.86922 6.57605 5.74359 6.6127 5.60452C6.64934 5.46545 6.64527 5.31878 6.60098 5.18195C6.55669 5.04513 6.47403 4.9239 6.36285 4.83268C6.25166 4.74146 6.11662 4.68408 5.97378 4.66738L4.82488 4.50218L4.30675 3.45841C4.23762 3.33832 4.13806 3.23856 4.01809 3.16919C3.89813 3.09983 3.762 3.06331 3.62342 3.06331C3.48485 3.06331 3.34872 3.09983 3.22876 3.16919C3.10879 3.23856 3.00923 3.33832 2.9401 3.45841L2.42197 4.50218L1.27307 4.66738C1.13023 4.68408 0.995185 4.74146 0.884 4.83268C0.772814 4.9239 0.690162 5.04513 0.645871 5.18195C0.601581 5.31878 0.597514 5.46545 0.634154 5.60452C0.670795 5.74359 0.746601 5.86922 0.852561 5.96646L1.68607 6.78495L1.48333 7.92634C1.45731 8.06784 1.4725 8.21384 1.52708 8.34697C1.58166 8.48009 1.67334 8.59473 1.7912 8.67725C1.90632 8.76139 2.04301 8.81102 2.1853 8.82033C2.32758 8.82964 2.46958 8.79824 2.59468 8.72981L3.62342 8.18916L4.65217 8.72981C4.76064 8.78836 4.88185 8.81931 5.0051 8.81992ZM3.62342 7.39319C3.5629 7.39282 3.50334 7.40835 3.45072 7.43824L2.22673 8.05399L2.49706 6.71737C2.50124 6.6531 2.48975 6.58877 2.46359 6.52991C2.43744 6.47106 2.39738 6.41943 2.34687 6.37946L1.3782 5.41078L2.72984 5.21555C2.7896 5.20825 2.8465 5.1858 2.89513 5.15031C2.94376 5.11482 2.9825 5.06749 3.00768 5.0128L3.63093 3.78881L4.23917 5.0128C4.26435 5.06749 4.30309 5.11482 4.35172 5.15031C4.40035 5.1858 4.45725 5.20825 4.51701 5.21555L5.86865 5.43331L4.89997 6.37946C4.85624 6.42316 4.82329 6.47646 4.80374 6.53511C4.78419 6.59376 4.77857 6.65617 4.78734 6.71737L5.0051 8.06901L3.79613 7.43824C3.74351 7.40835 3.68395 7.39282 3.62342 7.39319ZM19.355 5.18551C19.3121 5.04962 19.2314 4.92874 19.1224 4.837C19.0134 4.74525 18.8805 4.68642 18.7393 4.66738L17.5904 4.50218L17.0723 3.45841C17.0031 3.33832 16.9036 3.23856 16.7836 3.16919C16.6636 3.09983 16.5275 3.06331 16.3889 3.06331C16.2503 3.06331 16.1142 3.09983 15.9943 3.16919C15.8743 3.23856 15.7747 3.33832 15.7056 3.45841L15.1875 4.50218L14.0386 4.66738C13.8957 4.68408 13.7607 4.74146 13.6495 4.83268C13.5383 4.9239 13.4557 5.04513 13.4114 5.18195C13.3671 5.31878 13.363 5.46545 13.3997 5.60452C13.4363 5.74359 13.5121 5.86922 13.6181 5.96646L14.4516 6.78495L14.2488 7.92634C14.2228 8.06784 14.238 8.21384 14.2926 8.34697C14.3472 8.48009 14.4388 8.59473 14.5567 8.67725C14.6718 8.76139 14.8085 8.81102 14.9508 8.82033C15.0931 8.82964 15.2351 8.79824 15.3602 8.72981L16.3889 8.18916L17.4177 8.72981C17.5261 8.78836 17.6473 8.81931 17.7706 8.81992C17.8825 8.82196 17.9933 8.79899 18.0952 8.75267C18.197 8.70636 18.2872 8.63787 18.3592 8.55223C18.4312 8.46658 18.4831 8.36594 18.5112 8.25765C18.5393 8.14936 18.5428 8.03617 18.5215 7.92634L18.3188 6.78495L19.1523 5.96646C19.2569 5.86908 19.3315 5.74386 19.3674 5.60553C19.4034 5.46719 19.3991 5.32148 19.355 5.18551ZM17.6655 6.37946C17.6217 6.42316 17.5888 6.47646 17.5692 6.53511C17.5497 6.59376 17.5441 6.65617 17.5528 6.71737L17.7706 8.06901L16.5616 7.43824C16.5089 7.40864 16.4494 7.3931 16.3889 7.3931C16.3284 7.3931 16.269 7.40864 16.2162 7.43824L14.9922 8.05399L15.2626 6.71737C15.2667 6.6531 15.2552 6.58877 15.2291 6.52991C15.2029 6.47106 15.1629 6.41943 15.1124 6.37946L14.1437 5.41078L15.4953 5.21555C15.5551 5.20825 15.612 5.1858 15.6606 5.15031C15.7093 5.11482 15.748 5.06749 15.7732 5.0128L16.3964 3.78881L17.0047 5.0128C17.0298 5.06749 17.0686 5.11482 17.1172 5.15031C17.1658 5.1858 17.2227 5.20825 17.2825 5.21555L18.6341 5.43331L17.6655 6.37946Z" fill="#D2AA6C"/>
</svg>
