<svg width="124" height="124" viewBox="0 0 124 124" fill="none" xmlns="http://www.w3.org/2000/svg">
<rect x="0.5" y="0.5" width="123" height="123" rx="61.5" fill="#F9F9F9" stroke="#E8E8E8"/>
<path d="M78.0682 50.9384H73.7638L71.3875 47.3514C70.4907 46.0063 68.9214 45.1992 67.3073 45.1992H57.4431C55.8289 45.1992 54.2596 46.0063 53.3629 47.3514L50.9865 50.9384H46.6821C46.0339 50.9365 45.3917 51.0628 44.7925 51.31C44.1932 51.5572 43.6488 51.9204 43.1904 52.3788C42.7321 52.8372 42.3688 53.3816 42.1216 53.9808C41.8744 54.5801 41.7481 55.2223 41.75 55.8705V73.2673C41.7481 73.9156 41.8744 74.5578 42.1216 75.157C42.3688 75.7562 42.7321 76.3007 43.1904 76.759C43.6488 77.2174 44.1932 77.5806 44.7925 77.8278C45.3917 78.075 46.0339 78.2013 46.6821 78.1994H78.0682C78.7164 78.2013 79.3586 78.075 79.9578 77.8278C80.5571 77.5806 81.1015 77.2174 81.5599 76.759C82.0183 76.3007 82.3815 75.7562 82.6287 75.157C82.8759 74.5578 83.0022 73.9156 83.0003 73.2673V55.8705C83.0022 55.2223 82.8759 54.5801 82.6287 53.9808C82.3815 53.3816 82.0183 52.8372 81.5599 52.3788C81.1015 51.9204 80.5571 51.5572 79.9578 51.31C79.3586 51.0628 78.7164 50.9365 78.0682 50.9384ZM62.3752 74.1641C56.2325 74.1641 51.2555 69.1872 51.2555 63.0444C51.2555 56.9017 56.2325 51.9696 62.3752 51.9696C68.5179 51.9696 73.4948 56.9466 73.4948 63.0893C73.4948 69.1872 68.5179 74.1641 62.3752 74.1641ZM77.4405 57.8882H75.4676C74.6606 57.8433 74.0328 57.1708 74.0777 56.3637C74.1225 55.6015 74.7054 55.0186 75.4676 54.9737H77.2611C78.0682 54.9289 78.7408 55.5566 78.7856 56.3637C78.8304 57.1708 78.2476 57.8433 77.4405 57.8882Z" fill="#CCCCCC"/>
<path d="M62.375 56.9023C58.9674 56.9023 56.1875 59.6823 56.1875 63.0899C56.1875 66.4975 58.9674 69.2326 62.375 69.2326C65.7827 69.2326 68.5626 66.4527 68.5626 63.045C68.5626 59.6374 65.7827 56.9023 62.375 56.9023Z" fill="#CCCCCC"/>
<rect x="83.5" y="83.5" width="39" height="39" rx="19.5" fill="#F7F7F7" stroke="#E8E8E8" stroke-width="3"/>
<path fill-rule="evenodd" clip-rule="evenodd" d="M102 110C102 110.552 102.448 111 103 111C103.552 111 104 110.552 104 110V104H110C110.552 104 111 103.552 111 103C111 102.448 110.552 102 110 102H104V96C104 95.4477 103.552 95 103 95C102.448 95 102 95.4477 102 96V102H96C95.4477 102 95 102.448 95 103C95 103.552 95.4477 104 96 104H102V110Z" fill="#969696"/>
</svg>
