<svg width="76" height="71" viewBox="0 0 76 71" fill="none" xmlns="http://www.w3.org/2000/svg">
<path d="M38.0062 0C43.6633 0 51.4612 19.4194 52.3249 19.9469C53.1887 20.4744 74.1322 22.9565 75.8691 26.9453C77.606 30.9355 61.4917 45.3698 61.0932 46.353C60.6946 47.3348 64.7202 67.8588 61.4078 70.5459C58.0954 73.2317 39.1619 62.7288 38.0076 62.7223C36.8532 62.7158 18.6849 73.2879 14.6074 70.5459C10.5298 67.804 15.2165 47.4641 14.922 46.353C14.6274 45.2418 -1.69611 32.2294 0.144717 26.9453C1.98554 21.6612 22.9371 20.494 23.6889 19.9469C24.4407 19.3998 32.3505 0 38.0062 0Z" fill="url(#paint0_linear_1687_2241)"/>
<path d="M38.0056 2.4105C43.2774 2.4105 50.1915 21.2058 50.9966 21.698C51.8018 22.189 71.6763 23.8067 73.2958 27.5266C74.9154 31.2452 59.5396 44.3529 59.169 45.2682C58.7972 46.1834 62.904 65.6616 59.8169 68.1646C56.7297 70.6689 39.0826 60.5316 38.0056 60.525C36.9285 60.5185 19.9946 70.7198 16.1943 68.1646C12.3927 65.6094 17.4713 46.6509 17.1967 45.6155C16.9221 44.5814 0.998477 32.4516 2.714 27.5279C4.42953 22.6028 24.6679 22.2098 25.3691 21.6993C26.0702 21.1888 32.7337 2.4105 38.0056 2.4105Z" fill="url(#paint1_linear_1687_2241)"/>
<defs>
<linearGradient id="paint0_linear_1687_2241" x1="19" y1="8.26087" x2="58.6522" y2="67.7391" gradientUnits="userSpaceOnUse">
<stop stop-color="#FFD56A"/>
<stop offset="1" stop-color="#DB8208"/>
</linearGradient>
<linearGradient id="paint1_linear_1687_2241" x1="20.3731" y1="19.1663" x2="60.9768" y2="68.9591" gradientUnits="userSpaceOnUse">
<stop offset="0.04" stop-color="#FBEE6C"/>
<stop offset="0.08" stop-color="#FBEE6C"/>
<stop offset="0.34" stop-color="#FBE563"/>
<stop offset="0.682627" stop-color="#F9C52E"/>
<stop offset="0.86" stop-color="#F5B926"/>
</linearGradient>
</defs>
</svg>
