<svg width="17" height="17" viewBox="0 0 17 17" fill="none" xmlns="http://www.w3.org/2000/svg">
<path d="M15.1625 0H12.7832C12.5081 0 12.2852 0.222992 12.2852 0.498047C12.2852 0.773102 12.5081 0.996094 12.7832 0.996094H15.1625C15.6265 0.996094 16.0039 1.37355 16.0039 1.83749V4.2168C16.0039 4.49185 16.2269 4.71484 16.502 4.71484C16.777 4.71484 17 4.49185 17 4.2168V1.83749C17 0.824301 16.1757 0 15.1625 0ZM0.498047 4.71484C0.773102 4.71484 0.996094 4.49185 0.996094 4.2168V1.83749C0.996094 1.37355 1.37355 0.996094 1.83746 0.996094H4.2168C4.49185 0.996094 4.71484 0.773102 4.71484 0.498047C4.71484 0.222992 4.49185 0 4.2168 0H1.83746C0.824301 0 0 0.824301 0 1.83749V4.2168C0 4.49185 0.222992 4.71484 0.498047 4.71484ZM4.2168 16.0039H1.83746C1.37355 16.0039 0.996094 15.6265 0.996094 15.1625V12.7832C0.996094 12.5081 0.773102 12.2852 0.498047 12.2852C0.222992 12.2852 0 12.5081 0 12.7832V15.1625C0 16.1757 0.824301 17 1.83746 17H4.2168C4.49185 17 4.71484 16.777 4.71484 16.502C4.71484 16.2269 4.49185 16.0039 4.2168 16.0039ZM16.502 12.2852C16.2269 12.2852 16.0039 12.5081 16.0039 12.7832V15.1625C16.0039 15.6265 15.6265 16.0039 15.1625 16.0039H12.7832C12.5081 16.0039 12.2852 16.2269 12.2852 16.502C12.2852 16.777 12.5081 17 12.7832 17H15.1625C16.1757 17 17 16.1757 17 15.1625V12.7832C17 12.5081 16.777 12.2852 16.502 12.2852ZM11.3436 3.65234H12.9233C13.139 3.65234 13.3145 3.82782 13.3145 4.04354V5.62315C13.3145 5.8982 13.5374 6.1212 13.8125 6.1212C14.0876 6.1212 14.3105 5.8982 14.3105 5.62315V4.04354C14.3105 3.27858 13.6882 2.65625 12.9233 2.65625H11.3436C11.0686 2.65625 10.8456 2.87924 10.8456 3.1543C10.8456 3.42935 11.0686 3.65234 11.3436 3.65234ZM2.68945 4.04354V5.62315C2.68945 5.8982 2.91245 6.1212 3.1875 6.1212C3.46255 6.1212 3.68555 5.8982 3.68555 5.62315V4.04354C3.68555 3.82782 3.86106 3.65234 4.07675 3.65234H5.65638C5.93144 3.65234 6.15443 3.42935 6.15443 3.1543C6.15443 2.87924 5.93144 2.65625 5.65638 2.65625H4.07675C3.31181 2.65625 2.68945 3.27858 2.68945 4.04354ZM5.65638 13.2812H4.07675C3.86103 13.2812 3.68555 13.1058 3.68555 12.89V11.3104C3.68555 11.0354 3.46255 10.8124 3.1875 10.8124C2.91245 10.8124 2.68945 11.0354 2.68945 11.3104V12.89C2.68945 13.655 3.31181 14.2773 4.07675 14.2773H5.65638C5.93144 14.2773 6.15443 14.0544 6.15443 13.7793C6.15443 13.5042 5.93144 13.2812 5.65638 13.2812ZM14.3105 12.89V11.3104C14.3105 11.0354 14.0876 10.8124 13.8125 10.8124C13.5374 10.8124 13.3145 11.0354 13.3145 11.3104V12.89C13.3145 13.1058 13.1389 13.2812 12.9233 13.2812H11.3436C11.0686 13.2812 10.8456 13.5042 10.8456 13.7793C10.8456 14.0544 11.0686 14.2773 11.3436 14.2773H12.9233C13.6882 14.2773 14.3105 13.655 14.3105 12.89ZM0.0332031 8.5C0.0332031 8.77505 0.256195 8.99805 0.53125 8.99805H16.4688C16.7438 8.99805 16.9668 8.77505 16.9668 8.5C16.9668 8.22495 16.7438 8.00195 16.4688 8.00195H0.53125C0.256195 8.00195 0.0332031 8.22495 0.0332031 8.5Z" fill="#4B9C6D"/>
</svg>
