<svg width="21" height="21" viewBox="0 0 21 21" fill="none" xmlns="http://www.w3.org/2000/svg">
<path d="M7.57081 9.27834C6.08616 9.27834 4.88477 8.07695 4.88477 6.5923C4.88477 5.10765 6.08616 3.90625 7.57081 3.90625C9.05546 3.90625 10.2569 5.10765 10.2569 6.5923C10.2569 8.07695 9.05546 9.27834 7.57081 9.27834ZM7.57081 5.37137C7.247 5.37137 6.93645 5.5 6.70748 5.72897C6.47852 5.95794 6.34988 6.26849 6.34988 6.5923C6.34988 6.91611 6.47852 7.22666 6.70748 7.45562C6.93645 7.68459 7.247 7.81323 7.57081 7.81323C7.89462 7.81323 8.20517 7.68459 8.43414 7.45562C8.66311 7.22666 8.79174 6.91611 8.79174 6.5923C8.79174 6.26849 8.66311 5.95794 8.43414 5.72897C8.20517 5.5 7.89462 5.37137 7.57081 5.37137Z" fill="#FFC344" fill-opacity="0.54"/>
<path d="M13.4302 21H7.56977C2.26605 21 0 18.734 0 13.4302V7.56977C0 2.26605 2.26605 0 7.56977 0H11.4767C11.8772 0 12.2093 0.332093 12.2093 0.732558C12.2093 1.13302 11.8772 1.46512 11.4767 1.46512H7.56977C3.06698 1.46512 1.46512 3.06698 1.46512 7.56977V13.4302C1.46512 17.933 3.06698 19.5349 7.56977 19.5349H13.4302C17.933 19.5349 19.5349 17.933 19.5349 13.4302V8.54651C19.5349 8.14605 19.867 7.81395 20.2674 7.81395C20.6679 7.81395 21 8.14605 21 8.54651V13.4302C21 18.734 18.734 21 13.4302 21Z" fill="#FFC344"/>
<path d="M16.3595 7.32566C15.959 7.32566 15.627 6.99357 15.627 6.5931V0.732635C15.627 0.439612 15.8028 0.166123 16.0763 0.0586814C16.3497 -0.0487604 16.6623 0.0098443 16.8772 0.214961L18.8307 2.16845C19.1139 2.4517 19.1139 2.92054 18.8307 3.2038C18.5474 3.48705 18.0786 3.48705 17.7953 3.2038L17.0921 2.50054V6.5931C17.0921 6.99357 16.76 7.32566 16.3595 7.32566Z" fill="#FFC344" fill-opacity="0.54"/>
<path d="M14.4066 3.41909C14.2211 3.41909 14.0355 3.35072 13.889 3.20421C13.7527 3.06635 13.6763 2.88035 13.6763 2.68653C13.6763 2.49272 13.7527 2.30672 13.889 2.16886L15.8424 0.215372C16.1257 -0.0678843 16.5945 -0.0678843 16.8778 0.215372C17.1611 0.498627 17.1611 0.967465 16.8778 1.25072L14.9243 3.20421C14.7778 3.35072 14.5922 3.41909 14.4066 3.41909ZM1.38663 18.0214C1.23051 18.0203 1.07881 17.9695 0.953591 17.8762C0.828376 17.7829 0.736181 17.6522 0.69042 17.5029C0.644658 17.3536 0.647717 17.1937 0.699151 17.0462C0.750586 16.8988 0.847712 16.7717 0.976401 16.6833L5.79175 13.4503C6.84663 12.747 8.30198 12.8251 9.25919 13.6358L9.58152 13.9191C10.0699 14.3391 10.9001 14.3391 11.3787 13.9191L15.442 10.4321C16.4773 9.54328 18.1085 9.54328 19.1536 10.4321L20.7457 11.7996C21.0485 12.0633 21.0876 12.5223 20.8238 12.8349C20.5601 13.1377 20.0913 13.1768 19.7885 12.913L18.1964 11.5456C17.708 11.1256 16.8876 11.1256 16.3992 11.5456L12.3359 15.0326C11.3006 15.9214 9.66942 15.9214 8.62431 15.0326L8.30198 14.7493C7.85268 14.3684 7.11035 14.3293 6.61222 14.6712L1.80663 17.9042C1.66989 17.9823 1.52338 18.0214 1.38663 18.0214Z" fill="#FFC344" fill-opacity="0.54"/>
</svg>
