<svg width="346" height="57" viewBox="0 0 346 57" fill="none" xmlns="http://www.w3.org/2000/svg">
<path d="M30.505 0C35.0456 0 41.3044 15.5902 41.9977 16.0137C42.6909 16.4372 59.5009 18.4298 60.8949 21.6322C62.289 24.8355 49.3552 36.4236 49.0353 37.213C48.7154 38.0012 51.9465 54.4782 49.2878 56.6355C46.6292 58.7917 31.4326 50.3598 30.5061 50.3545C29.5796 50.3493 14.9971 58.8367 11.7243 56.6355C8.45158 54.4342 12.2133 38.105 11.9768 37.213C11.7404 36.3209 -1.36135 25.8743 0.116154 21.6322C1.59366 17.39 18.41 16.4529 19.0134 16.0137C19.6168 15.5745 25.9655 0 30.505 0Z" fill="url(#paint0_linear_1687_3284)"/>
<path d="M30.5045 1.93519C34.7358 1.93519 40.2853 17.0244 40.9315 17.4195C41.5777 17.8137 57.5296 19.1124 58.8295 22.0988C60.1294 25.0841 47.7884 35.6072 47.491 36.342C47.1925 37.0769 50.4888 52.7142 48.0109 54.7237C45.5331 56.7342 31.3689 48.5958 30.5045 48.5905C29.64 48.5853 16.0483 56.7751 12.998 54.7237C9.94674 52.6723 14.023 37.4521 13.8026 36.6209C13.5822 35.7907 0.801409 26.0527 2.17834 22.0998C3.55528 18.146 19.7993 17.8304 20.362 17.4206C20.9248 17.0107 26.2731 1.93519 30.5045 1.93519Z" fill="url(#paint1_linear_1687_3284)"/>
<path d="M101.505 0C106.046 0 112.304 15.5902 112.998 16.0137C113.691 16.4372 130.501 18.4298 131.895 21.6322C133.289 24.8355 120.355 36.4236 120.035 37.213C119.715 38.0012 122.946 54.4782 120.288 56.6355C117.629 58.7917 102.433 50.3598 101.506 50.3545C100.58 50.3493 85.9971 58.8367 82.7243 56.6355C79.4516 54.4342 83.2133 38.105 82.9768 37.213C82.7404 36.3209 69.6387 25.8743 71.1162 21.6322C72.5937 17.39 89.41 16.4529 90.0134 16.0137C90.6168 15.5745 96.9655 0 101.505 0Z" fill="url(#paint2_linear_1687_3284)"/>
<path d="M101.504 1.93519C105.736 1.93519 111.285 17.0244 111.932 17.4195C112.578 17.8137 128.53 19.1124 129.83 22.0988C131.129 25.0841 118.788 35.6072 118.491 36.342C118.192 37.0769 121.489 52.7142 119.011 54.7237C116.533 56.7342 102.369 48.5958 101.504 48.5905C100.64 48.5853 87.0483 56.7751 83.998 54.7237C80.9467 52.6723 85.023 37.4521 84.8026 36.6209C84.5822 35.7907 71.8014 26.0527 73.1783 22.0998C74.5553 18.146 90.7993 17.8304 91.362 17.4206C91.9248 17.0107 97.2731 1.93519 101.504 1.93519Z" fill="url(#paint3_linear_1687_3284)"/>
<path d="M173.005 0C177.62 0 183.981 15.5902 184.686 16.0137C185.391 16.4372 202.476 18.4298 203.893 21.6322C205.31 24.8355 192.164 36.4236 191.839 37.213C191.514 38.0012 194.798 54.4782 192.096 56.6355C189.394 58.7917 173.948 50.3598 173.006 50.3545C172.064 50.3493 157.243 58.8367 153.917 56.6355C150.59 54.4342 154.413 38.105 154.173 37.213C153.933 36.3209 140.616 25.8743 142.118 21.6322C143.62 17.39 160.712 16.4529 161.325 16.0137C161.938 15.5745 168.391 0 173.005 0Z" fill="url(#paint4_linear_1687_3284)"/>
<path d="M173.005 1.93519C177.305 1.93519 182.946 17.0244 183.603 17.4195C184.259 17.8137 200.473 19.1124 201.794 22.0988C203.115 25.0841 190.572 35.6072 190.269 36.342C189.966 37.0769 193.316 52.7142 190.798 54.7237C188.28 56.7342 173.883 48.5958 173.005 48.5905C172.126 48.5853 158.311 56.7751 155.211 54.7237C152.11 52.6723 156.253 37.4521 156.029 36.6209C155.805 35.7907 142.815 26.0527 144.214 22.0998C145.614 18.146 162.124 17.8304 162.696 17.4206C163.268 17.0107 168.704 1.93519 173.005 1.93519Z" fill="url(#paint5_linear_1687_3284)"/>
<path d="M244.505 0C249.046 0 255.304 15.5902 255.998 16.0137C256.691 16.4372 273.501 18.4298 274.895 21.6322C276.289 24.8355 263.355 36.4236 263.035 37.213C262.715 38.0012 265.946 54.4782 263.288 56.6355C260.629 58.7917 245.433 50.3598 244.506 50.3545C243.58 50.3493 228.997 58.8367 225.724 56.6355C222.452 54.4342 226.213 38.105 225.977 37.213C225.74 36.3209 212.639 25.8743 214.116 21.6322C215.594 17.39 232.41 16.4529 233.013 16.0137C233.617 15.5745 239.966 0 244.505 0Z" fill="url(#paint6_linear_1687_3284)"/>
<path d="M244.504 1.93519C248.736 1.93519 254.285 17.0244 254.932 17.4195C255.578 17.8137 271.53 19.1124 272.83 22.0988C274.129 25.0841 261.788 35.6072 261.491 36.342C261.192 37.0769 264.489 52.7142 262.011 54.7237C259.533 56.7342 245.369 48.5958 244.504 48.5905C243.64 48.5853 230.048 56.7751 226.998 54.7237C223.947 52.6723 228.023 37.4521 227.803 36.6209C227.582 35.7907 214.801 26.0527 216.178 22.0998C217.555 18.146 233.799 17.8304 234.362 17.4206C234.925 17.0107 240.273 1.93519 244.504 1.93519Z" fill="url(#paint7_linear_1687_3284)"/>
<path d="M315.506 0C320.046 0 326.305 15.5915 326.998 16.014C327.691 16.4375 344.501 18.4291 345.895 21.6326C347.289 24.836 334.355 36.4243 334.034 37.2126C333.715 38.0009 336.946 54.4782 334.287 56.6355C331.628 58.7917 316.432 50.3586 315.506 50.3544C314.579 50.3492 299.997 58.8368 296.724 56.6355C293.451 54.4331 297.213 38.1046 296.977 37.2126C296.74 36.3216 283.639 25.8738 285.116 21.6326C286.594 17.3914 303.41 16.4532 304.013 16.014C304.618 15.5748 310.966 0 315.506 0Z" fill="url(#paint8_linear_1687_3284)"/>
<path d="M315.505 1.93491C319.737 1.93491 325.286 17.0244 325.932 17.4195C326.578 17.8137 342.53 19.1125 343.829 22.0989C345.129 25.0843 332.789 35.6076 332.491 36.3424C332.193 37.0772 335.489 52.7149 333.011 54.7244C330.533 56.7349 316.369 48.5964 315.505 48.5911C314.64 48.5859 301.05 56.7768 297.999 54.7244C294.949 52.673 299.024 37.4525 298.803 36.6212C298.583 35.791 285.802 26.0529 287.179 22.0989C288.556 18.1449 304.8 17.8294 305.363 17.4195C305.925 17.0097 311.274 1.93491 315.505 1.93491Z" fill="url(#paint9_linear_1687_3284)"/>
<defs>
<linearGradient id="paint0_linear_1687_3284" x1="15.25" y1="6.63196" x2="47.0863" y2="54.3753" gradientUnits="userSpaceOnUse">
<stop stop-color="#FFD56A"/>
<stop offset="1" stop-color="#DB8208"/>
</linearGradient>
<linearGradient id="paint1_linear_1687_3284" x1="16.3521" y1="15.387" x2="48.951" y2="55.3542" gradientUnits="userSpaceOnUse">
<stop offset="0.04" stop-color="#FBEE6C"/>
<stop offset="0.08" stop-color="#FBEE6C"/>
<stop offset="0.34" stop-color="#FBE563"/>
<stop offset="0.682627" stop-color="#F9C52E"/>
<stop offset="0.86" stop-color="#F5B926"/>
</linearGradient>
<linearGradient id="paint2_linear_1687_3284" x1="86.25" y1="6.63196" x2="118.086" y2="54.3753" gradientUnits="userSpaceOnUse">
<stop stop-color="#FFD56A"/>
<stop offset="1" stop-color="#DB8208"/>
</linearGradient>
<linearGradient id="paint3_linear_1687_3284" x1="87.3521" y1="15.387" x2="119.951" y2="55.3542" gradientUnits="userSpaceOnUse">
<stop offset="0.04" stop-color="#FBEE6C"/>
<stop offset="0.08" stop-color="#FBEE6C"/>
<stop offset="0.34" stop-color="#FBE563"/>
<stop offset="0.682627" stop-color="#F9C52E"/>
<stop offset="0.86" stop-color="#F5B926"/>
</linearGradient>
<linearGradient id="paint4_linear_1687_3284" x1="157.5" y1="6.63196" x2="189.134" y2="54.8502" gradientUnits="userSpaceOnUse">
<stop stop-color="#FFD56A"/>
<stop offset="1" stop-color="#DB8208"/>
</linearGradient>
<linearGradient id="paint5_linear_1687_3284" x1="158.62" y1="15.387" x2="191.109" y2="55.8717" gradientUnits="userSpaceOnUse">
<stop offset="0.04" stop-color="#FBEE6C"/>
<stop offset="0.08" stop-color="#FBEE6C"/>
<stop offset="0.34" stop-color="#FBE563"/>
<stop offset="0.682627" stop-color="#F9C52E"/>
<stop offset="0.86" stop-color="#F5B926"/>
</linearGradient>
<linearGradient id="paint6_linear_1687_3284" x1="229.25" y1="6.63196" x2="261.086" y2="54.3753" gradientUnits="userSpaceOnUse">
<stop stop-color="#FFD56A"/>
<stop offset="1" stop-color="#DB8208"/>
</linearGradient>
<linearGradient id="paint7_linear_1687_3284" x1="230.352" y1="15.387" x2="262.951" y2="55.3542" gradientUnits="userSpaceOnUse">
<stop offset="0.04" stop-color="#FBEE6C"/>
<stop offset="0.08" stop-color="#FBEE6C"/>
<stop offset="0.34" stop-color="#FBE563"/>
<stop offset="0.682627" stop-color="#F9C52E"/>
<stop offset="0.86" stop-color="#F5B926"/>
</linearGradient>
<linearGradient id="paint8_linear_1687_3284" x1="302.239" y1="7.02174" x2="332.432" y2="53.5507" gradientUnits="userSpaceOnUse">
<stop stop-color="#E3E3E3"/>
<stop offset="1" stop-color="#BDBDBD"/>
</linearGradient>
<linearGradient id="paint9_linear_1687_3284" x1="301.353" y1="15.387" x2="333.953" y2="55.3537" gradientUnits="userSpaceOnUse">
<stop offset="0.04" stop-color="#F9F9F9"/>
<stop offset="0.08" stop-color="#F5F5F5"/>
<stop offset="0.34" stop-color="#EAEAEA"/>
<stop offset="0.75" stop-color="#E5E5E5"/>
<stop offset="0.86" stop-color="#D7D7D7"/>
</linearGradient>
</defs>
</svg>
